<?xml version="1.0" encoding="utf-8"?>
<!-- Generator: Adobe Illustrator 27.5.0, SVG Export Plug-In . SVG Version: 6.00 Build 0)  -->
<svg version="1.1" xmlns="http://www.w3.org/2000/svg" xmlns:xlink="http://www.w3.org/1999/xlink" x="0px" y="0px"
	 viewBox="0 0 800 500" style="enable-background:new 0 0 800 500;" xml:space="preserve">
<g id="_x31_12">
	<g>
		<g>
			<defs>
				<rect id="SVGID_1_" x="0" width="799.999" height="500"/>
			</defs>
			
				<linearGradient id="SVGID_00000158712055096191538230000004278308661157888145_" gradientUnits="userSpaceOnUse" x1="75.0001" y1="574.9999" x2="724.9998" y2="-74.9999">
				<stop  offset="0" style="stop-color:#D8EFEC"/>
				<stop  offset="1" style="stop-color:#F7FCFB"/>
			</linearGradient>
			<use xlink:href="#SVGID_1_"  style="overflow:visible;fill:url(#SVGID_00000158712055096191538230000004278308661157888145_);"/>
			<clipPath id="SVGID_00000053524543837613596890000006592508648096859309_">
				<use xlink:href="#SVGID_1_"  style="overflow:visible;"/>
			</clipPath>
			<g style="clip-path:url(#SVGID_00000053524543837613596890000006592508648096859309_);">
				<g>
					<g>
						<g>
							<path style="fill:#669BFA;" d="M143.706,725.146c-11.061,0-20.042-5.668-26.712-16.861
								c-50.556-84.853,40.515-475.023,157.171-673.359c58.293-99.112,66.378-183.381,22.764-237.283
								c-37.94-46.891-113.017-63.467-182.574-40.307C39.022-217.581-7.736-155.003-10.723-75.269l-0.75-0.028
								c1.589-42.431,14.846-79.288,39.402-109.548c21.701-26.743,51.505-46.982,86.189-58.531
								c33.09-11.017,69.21-13.38,101.71-6.657c34.174,7.072,62.42,23.395,81.684,47.203c20.37,25.175,29.65,57.013,27.585,94.631
								c-2.331,42.453-19.249,90.734-50.286,143.504C220.401,127.813,167.72,269.133,133.89,413.334
								c-15.929,67.898-26.071,130.572-29.331,181.249c-3.469,53.947,1.053,93.132,13.08,113.316
								c6.753,11.335,15.908,16.886,27.215,16.476c31.028-1.104,77.508-45.46,138.147-131.837
								c69.49-98.984,156.39-251.844,258.288-454.332c129.596-257.519,213.169-376.933,255.437-365.096
								c50.273,14.081,34.733,208.077,19.704,395.685c-13.207,164.874-25.682,320.604,9.442,330.347
								c24.368,6.759,69.862-57.724,139.147-197.124l0.672,0.334c-69.469,139.771-115.253,204.385-140.019,197.514
								c-35.721-9.909-23.222-165.939-9.989-331.131c7.397-92.334,15.045-187.811,14.581-261.743
								c-0.523-83.39-11.56-126.947-33.74-133.16c-41.9-11.738-125.156,107.566-254.564,364.711
								C440.045,341.064,353.126,493.954,283.615,592.969c-60.782,86.58-107.459,131.043-138.734,132.156
								C144.487,725.139,144.095,725.146,143.706,725.146z"/>
						</g>
					</g>
					<g>
						<g>
							<path style="fill:#ADB6D5;" d="M143.943,720.88c-11.826,0-21.411-6.107-28.502-18.163
								c-24.045-40.881-18.973-149.765,13.569-291.264c15.248-66.304,35.531-134.612,58.655-197.541
								c24.535-66.768,51.85-126.095,78.996-171.565c57.188-95.795,64.737-178.158,21.257-231.917
								c-40.164-49.658-119.212-67.011-192.228-42.197C22.616-206.936-22.147-146.499-24.053-70.098l-0.75-0.019
								c1.017-40.788,13.41-76.241,36.831-105.375c20.724-25.778,49.57-45.483,83.419-56.985
								c34.366-11.678,72.291-14.2,106.787-7.106c36.253,7.456,66.084,24.587,86.267,49.541
								c43.692,54.022,36.164,136.689-21.197,232.773c-53.706,89.963-105.131,227.866-137.564,368.891
								c-15.274,66.418-24.83,127.945-27.633,177.931c-2.981,53.165,1.853,92.166,13.98,112.784
								c7.156,12.166,16.88,18.16,28.907,17.776c31.551-0.971,78.153-44.232,138.512-128.58
								c69.15-96.637,155.191-245.951,255.732-443.794c127.95-251.773,211.117-368.368,254.242-356.453
								c51.401,14.198,38.223,205.388,25.479,390.283c-11.198,162.469-21.776,315.927,14.143,325.748
								c24.837,6.797,70.145-56.154,138.518-192.434l0.67,0.336c-68.557,136.647-114.143,199.726-139.386,192.821
								c-36.512-9.984-25.913-163.739-14.692-326.523c6.273-90.996,12.758-185.09,11.274-257.993
								c-1.673-82.229-13.516-125.249-36.205-131.517c-42.727-11.802-125.612,104.668-253.374,356.07
								C439.349,345.956,353.289,495.302,284.116,591.97c-60.501,84.549-107.301,127.915-139.098,128.894
								C144.657,720.874,144.299,720.88,143.943,720.88z"/>
						</g>
					</g>
					<g>
						<g>
							<path style="fill:#A3C4FE;" d="M144.156,716.676c-12.648,0.001-22.877-6.581-30.417-19.574
								c-24.229-41.755-20.099-149.221,11.05-287.472c31.082-137.954,81.309-272.561,134.358-360.072
								c56.105-92.549,63.149-173.024,19.835-226.601c-41.82-51.729-126.835-70.313-202.142-44.188
								C5.063-196.33-36.617-139.455-37.51-65.189l-0.75-0.009c0.471-39.182,12.01-73.264,34.296-101.299
								c19.745-24.838,47.601-44.01,80.558-55.443c75.6-26.225,160.958-7.542,202.971,44.425
								c20.31,25.121,29.763,56.104,28.099,92.087c-1.874,40.515-17.982,86.061-47.876,135.374
								c-53.01,87.446-103.204,221.969-134.268,359.848C94.412,547.866,90.25,655.13,114.387,696.726
								c7.581,13.063,17.915,19.515,30.702,19.189c32.081-0.826,78.819-43.003,138.918-125.358
								c68.836-94.327,154.052-240.162,253.279-433.454C663.634-89.008,746.454-202.818,790.419-190.848
								c52.563,14.311,41.744,202.782,31.282,385.049c-9.191,160.134-17.874,311.386,18.86,321.281
								c25.357,6.819,70.449-54.615,137.931-187.821l0.669,0.339c-67.666,133.57-113.068,195.121-138.794,188.207
								c-37.323-10.055-28.625-161.602-19.415-322.049c5.149-89.701,10.474-182.455,7.967-254.359
								c-2.828-81.105-15.485-123.604-38.696-129.923c-43.586-11.875-126.108,101.823-252.269,347.57
								C438.708,350.772,353.472,496.64,284.613,590.999c-60.243,82.553-107.179,124.832-139.504,125.665
								C144.79,716.672,144.471,716.676,144.156,716.676z"/>
						</g>
					</g>
					<g>
						<g>
							<path style="fill:#AEB7D6;" d="M144.343,712.538c-13.533,0-24.454-7.099-32.47-21.108
								c-24.396-42.64-21.177-148.71,8.61-283.737c29.746-134.838,78.766-266.099,131.129-351.123
								c55.042-89.375,61.613-167.979,18.501-221.332c-43.513-53.848-134.778-73.749-212.291-46.289
								C-11.5-186.494-51.205-131.63-51.113-60.527l-0.75,0.001c-0.048-37.616,10.654-70.361,31.81-97.327
								c18.771-23.925,45.613-42.566,77.625-53.906c36.8-13.037,78.42-15.854,117.196-7.932
								c40.106,8.194,74.174,27.533,95.929,54.456c20.255,25.066,29.772,55.612,28.286,90.789
								c-1.67,39.558-17.393,83.77-46.731,131.408c-52.321,84.956-101.307,216.131-131.035,350.892
								c-29.748,134.85-32.997,240.72-8.691,283.203c7.872,13.759,18.576,20.73,31.822,20.73c0.262,0,0.523-0.003,0.786-0.009
								c32.617-0.67,79.507-41.771,139.369-122.162c68.548-92.055,152.976-234.475,250.935-423.304
								C660.222-74.228,742.695-185.318,787.537-173.28c53.754,14.416,45.297,200.251,37.118,379.968
								c-7.184,157.866-13.97,306.977,23.601,316.941c25.85,6.837,70.77-53.105,137.381-183.282l0.668,0.342
								c-66.798,130.54-112.01,190.613-138.241,183.665c-38.154-10.118-31.355-159.523-24.157-317.7
								c4.025-88.443,8.187-179.897,4.652-250.834c-3.987-80.015-17.469-122.007-41.216-128.375
								c-44.45-11.921-126.643,99.036-251.24,339.215c-97.979,188.864-182.428,331.318-251,423.406
								c-60.007,80.586-107.095,121.788-139.955,122.464C144.878,712.535,144.61,712.538,144.343,712.538z"/>
						</g>
					</g>
					<g>
						<g>
							<path style="fill:#A0C2FE;" d="M144.51,708.458c-14.484,0.001-26.143-7.658-34.664-22.773
								c-24.541-43.532-22.202-148.224,6.256-280.05c28.442-131.749,76.278-259.699,127.962-342.264
								c54.001-86.268,60.128-163.017,17.255-216.108c-45.23-56.011-143.03-77.322-222.649-48.516
								C-28.146-177.08-65.882-124.182-64.863-56.122l-0.75,0.011C-66.637-124.51-28.72-177.669,38.415-201.958
								c37.941-13.727,81.445-16.669,122.495-8.285c42.423,8.665,78.289,28.92,100.993,57.034
								c20.183,24.993,29.747,55.096,28.425,89.472c-1.484,38.61-16.835,81.509-45.628,127.505
								c-51.64,82.497-99.44,210.356-127.865,342.025C88.415,537.445,86.046,641.94,110.5,685.316
								c8.377,14.86,19.82,22.392,34.013,22.392c0.205,0,0.408-0.002,0.614-0.005c33.158-0.503,80.213-40.54,139.857-118.999
								c68.283-89.82,151.953-228.892,248.685-413.35C656.939-59.7,739.094-168.095,784.828-156.017
								c54.981,14.515,48.889,197.801,42.996,375.051c-5.175,155.668-10.063,302.704,28.365,312.729
								c26.336,6.872,71.112-51.623,136.879-178.822l0.666,0.344C927.78,480.847,882.71,539.458,856.001,532.489
								c-39.009-10.177-34.111-157.503-28.927-313.48c2.899-87.227,5.898-177.424,1.33-247.424
								c-5.152-78.96-19.469-120.462-43.768-126.877c-45.358-11.971-127.222,96.299-250.303,330.994
								C437.582,360.198,353.89,499.305,285.582,589.158c-59.791,78.651-107.043,118.788-140.443,119.295
								C144.93,708.456,144.718,708.458,144.51,708.458z"/>
						</g>
					</g>
					<g>
						<g>
							<path style="fill:#7BBEDF;" d="M144.656,704.441c-15.506,0.001-27.958-8.268-37.014-24.584
								c-24.663-44.429-23.171-147.757,3.99-276.4c27.17-128.68,73.842-253.341,124.848-333.471
								c52.984-83.235,58.702-158.147,16.102-210.938c-47.768-59.196-150.196-81.539-233.186-50.866
								c-64.271,23.753-100.045,74.731-98.152,139.862l-0.75,0.021c-1.006-34.622,8.083-64.812,27.016-89.73
								c16.854-22.182,41.621-39.768,71.626-50.857c39.018-14.42,84.416-17.469,127.832-8.588
								c44.824,9.171,82.539,30.368,106.198,59.687c20.095,24.901,29.689,54.555,28.517,88.138
								c-1.315,37.671-16.31,79.281-44.569,123.674c-50.961,80.058-97.595,204.627-124.747,333.224
								c-27.125,128.472-28.646,231.605-4.069,275.882c8.995,16.202,21.396,24.345,36.771,24.195
								c33.707-0.322,80.941-39.303,140.39-115.858c68.042-87.62,150.99-223.404,246.54-403.58
								c121.79-229.65,203.668-335.394,250.285-323.288c56.241,14.607,52.518,195.422,48.918,370.285
								c-3.162,153.54-6.148,298.565,33.161,308.648c26.847,6.882,71.472-50.171,136.411-174.434l0.664,0.348
								c-65.126,124.62-110.025,181.8-137.262,174.812c-39.885-10.23-36.893-155.544-33.725-309.39
								c1.771-86.049,3.604-175.027-2.004-244.12c-6.324-77.938-21.487-118.965-46.354-125.423
								c-46.23-11.998-127.831,93.616-249.434,322.913c-95.569,180.214-178.54,316.034-246.61,403.689
								c-59.597,76.746-107.028,115.823-140.975,116.148C144.936,704.441,144.795,704.441,144.656,704.441z"/>
						</g>
					</g>
					<g>
						<g>
							<path style="fill:#6A9EFA;" d="M144.789,700.488c-16.608,0-29.907-8.933-39.532-26.554
								c-24.76-45.332-24.079-147.309,1.822-272.787c25.932-125.631,71.465-247.034,121.799-324.754
								c51.984-80.265,57.324-153.354,15.035-205.803C194.34-190.893,84.926-214.827,0.012-182.764
								c-36.262,13.693-96.541,49.403-92.823,134.719l-0.749,0.032c-1.447-33.194,6.869-62.165,24.717-86.105
								c15.917-21.35,39.634-38.414,68.59-49.348c39.446-14.895,87.998-18.114,133.204-8.83
								c47.314,9.716,86.929,31.882,111.547,62.415c19.987,24.79,29.596,53.986,28.559,86.78
								c-1.162,36.738-15.813,77.079-43.548,119.901c-50.287,77.645-95.78,198.954-121.695,324.497
								c-25.866,125.311-26.576,227.096-1.898,272.276c9.482,17.36,22.563,26.163,38.874,26.163c0.058,0,0.113,0,0.171,0
								c34.262-0.129,81.691-38.061,140.968-112.744c67.829-85.457,150.09-218.017,244.5-394.001
								C650.773-31.325,732.368-134.477,779.913-122.338c57.537,14.69,56.188,193.118,54.884,365.669
								c-1.146,151.479-2.228,294.558,37.985,304.691c27.359,6.896,71.848-48.748,135.984-170.119l0.663,0.35
								C945.111,499.972,900.363,555.739,872.6,548.75c-40.784-10.277-39.7-153.642-38.553-305.424
								c0.642-84.91,1.306-172.71-5.347-240.924c-7.505-76.95-23.523-117.515-48.973-124.013
								c-47.139-12.044-128.477,90.985-248.637,314.958C436.659,369.37,354.373,501.969,286.517,587.46
								c-59.426,74.87-107.051,112.898-141.553,113.028C144.906,700.488,144.847,700.488,144.789,700.488z"/>
						</g>
					</g>
					<g>
						<g>
							<path style="fill:#BFEEE8;" d="M144.903,696.591c-0.038,0-0.075,0-0.114,0c-17.742-0.041-31.913-9.696-42.117-28.699
								c-24.828-46.234-24.917-146.866-0.239-269.189c24.733-122.596,69.152-240.762,118.821-316.095
								c65.372-99.154,43.726-163.875,14.056-200.71c-51.395-63.805-168.064-89.444-254.766-55.989
								c-60.006,23.155-91.103,69.223-87.563,129.717l-0.749,0.044c-1.862-31.817,5.705-59.61,22.49-82.605
								c15.212-20.84,37.267-36.941,65.552-47.855c40.363-15.574,90.878-18.856,138.594-9.002
								c49.887,10.303,91.448,33.465,117.027,65.22c19.862,24.658,29.469,53.392,28.552,85.402
								c-1.025,35.813-15.347,74.905-42.566,116.19c-49.618,75.257-93.996,193.325-118.711,315.831
								c-24.645,122.156-24.583,222.6,0.164,268.686c10.064,18.741,24.013,28.264,41.459,28.304c0.036,0,0.077,0,0.113,0
								c34.816,0,82.412-36.888,141.479-109.651c67.641-83.326,149.253-212.728,242.569-384.608
								C647.893-17.492,729.254-118.074,777.707-105.925c26.388,6.619,43.46,46.947,52.192,123.289
								c7.711,67.406,8.22,154.089,8.712,237.919c0.878,149.488,1.707,290.686,42.849,300.862
								c27.878,6.9,72.244-47.356,135.592-165.874l0.662,0.353C954.181,509.488,909.558,563.857,881.28,556.874
								c-41.709-10.317-42.539-151.799-43.419-301.586c-0.492-83.81-1.001-170.473-8.707-237.838
								c-8.693-75.995-25.581-116.113-51.63-122.647c-48.088-12.064-129.161,88.412-247.913,307.137
								C436.272,373.86,354.635,503.3,286.964,586.663C227.752,659.606,179.956,696.59,144.903,696.591z"/>
						</g>
					</g>
					<g>
						<g>
							<path style="fill:#68B9F9;" d="M145.016,692.751c-0.151,0-0.301-0.001-0.451-0.002
								c-18.866-0.162-33.897-10.603-44.675-31.032c-24.866-47.135-25.687-146.425-2.196-265.602
								c23.569-119.57,66.893-234.519,115.892-307.487c64.144-95.524,42.563-159.13,13.164-195.668
								c-53.227-66.15-177.409-93.615-265.751-58.775c-57.411,22.642-86.674,66.985-82.398,124.861l-0.748,0.056
								c-4.302-58.232,25.129-102.842,82.871-125.614c41.196-16.248,93.678-19.563,143.984-9.092
								c52.541,10.934,96.091,35.117,122.626,68.096c19.721,24.509,29.309,52.773,28.499,84.008
								c-0.905,34.897-14.909,72.764-41.624,112.548c-48.945,72.89-92.227,187.736-115.778,307.215
								c-23.458,119.013-22.665,218.118,2.123,265.105c10.639,20.167,25.449,30.474,44.017,30.633
								c0.147,0.001,0.299,0.002,0.446,0.002c35.352,0,83.057-35.851,141.811-106.576c67.479-81.228,148.475-207.524,240.74-375.384
								C645.14-3.858,726.266-101.934,775.666-89.775c26.999,6.649,44.954,46.54,54.89,121.953
								c8.772,66.586,10.459,152.171,12.089,234.938c2.906,147.561,5.651,286.938,47.747,297.153
								c28.42,6.907,72.657-45.995,135.237-161.701l0.66,0.357c-62.764,116.043-107.251,169.061-136.074,162.073
								c-42.657-10.352-45.408-150.01-48.32-297.868c-1.63-82.746-3.315-168.31-12.082-234.854
								c-9.891-75.072-27.661-114.756-54.326-121.323c-48.985-12.066-129.872,85.883-247.261,299.449
								c-92.288,167.9-173.311,294.237-240.82,375.502C228.504,656.807,180.602,692.751,145.016,692.751z"/>
						</g>
					</g>
					<g>
						<g>
							<path style="fill:#A3C4FE;" d="M145.114,688.969c-0.282,0-0.558-0.002-0.839-0.007
								c-20.064-0.303-36.007-11.598-47.385-33.572c-24.87-48.027-26.377-145.974-4.033-262.005
								c22.444-116.554,64.697-228.301,113.027-298.927c62.938-91.973,41.461-154.444,12.362-190.656
								c-55.059-68.516-187.015-97.936-276.851-61.721c-54.843,22.107-82.313,64.776-77.348,120.147l-0.747,0.066
								c-4.997-55.728,22.638-98.668,77.814-120.909c41.948-16.909,96.393-20.223,149.376-9.094
								c55.278,11.612,100.856,36.841,128.339,71.041c19.558,24.338,29.111,52.125,28.393,82.588
								c-0.801,33.987-14.501,70.646-40.72,108.961c-48.274,70.545-90.483,182.188-112.91,298.645
								C71.28,509.397,72.762,607.162,97.556,655.045c11.242,21.71,26.964,32.869,46.73,33.167c0.274,0.004,0.554,0.007,0.83,0.007
								c35.883,0,83.696-34.82,142.141-103.523c67.344-79.163,147.761-202.421,239.019-366.349
								C642.516,9.546,723.475-86.043,773.782-73.895c27.631,6.675,46.482,46.145,57.63,120.663
								c9.845,65.798,12.712,150.325,15.485,232.069c4.943,145.702,9.612,283.324,52.687,293.568
								c28.948,6.891,73.083-44.662,134.913-157.597l0.658,0.359C973.14,528.44,928.746,580.129,899.41,573.136
								c-43.631-10.377-48.31-148.276-53.263-294.272c-2.772-81.723-5.64-166.228-15.477-231.983
								c-11.099-74.183-29.765-113.45-57.065-120.045c-49.937-12.059-130.62,83.412-246.675,291.878
								C435.65,382.684,355.205,505.981,287.829,585.182C229.24,654.054,181.228,688.965,145.114,688.969z"/>
						</g>
					</g>
					<g>
						<g>
							<path style="fill:#99E0F1;" d="M145.216,685.243c-0.43,0-0.856-0.005-1.283-0.015c-21.341-0.466-38.25-12.69-50.257-36.333
								c-24.836-48.907-26.984-145.501-5.748-258.391c21.359-113.538,62.561-222.099,110.217-290.402
								c61.758-88.512,40.422-149.837,11.648-185.695c-27.9-34.77-76.643-61.664-133.73-73.788
								c-55.597-11.806-111.844-8.541-154.318,8.96c-52.318,21.558-78.042,62.608-72.433,115.59l-0.746,0.079
								c-2.963-27.991,2.519-52.506,16.294-72.865c12.561-18.563,31.603-33.198,56.599-43.498c42.61-17.558,99.017-20.838,154.759-9
								c57.253,12.159,106.152,39.149,134.159,74.052c19.378,24.15,28.88,51.453,28.239,81.151
								c-0.713,33.086-14.123,68.562-39.856,105.444c-47.598,68.22-88.754,176.673-110.095,290.111
								c-21.207,112.732-19.084,209.148,5.68,257.912c11.872,23.378,28.561,35.464,49.604,35.924
								c36.539,0.806,84.917-33.006,143.729-100.474c67.234-77.129,147.107-197.404,237.399-357.486
								C640.019,22.748,720.814-70.403,772.052-58.272c28.279,6.697,48.042,45.757,60.415,119.413
								c10.926,65.036,14.983,148.544,18.906,229.301c6.991,143.91,13.595,279.839,57.676,290.107
								c29.491,6.872,73.524-43.359,134.622-153.559l0.656,0.363c-61.28,110.529-105.581,160.891-135.448,153.925
								c-44.633-10.396-51.249-146.6-58.255-290.8c-3.922-80.736-7.979-164.222-18.897-229.214
								c-12.318-73.326-31.894-112.188-59.849-118.807c-50.866-12.047-131.395,80.99-246.148,284.43
								c-90.318,160.126-170.221,280.444-237.488,357.611C229.962,651.357,181.852,685.242,145.216,685.243z"/>
						</g>
					</g>
					<g>
						<g>
							<path style="fill:#A0C2FE;" d="M145.31,681.577c-0.601,0-1.196-0.009-1.791-0.025c-22.704-0.656-40.636-13.892-53.297-39.341
								c-24.762-49.769-27.5-145-7.325-254.742c20.319-110.523,60.497-215.909,107.476-281.91
								c60.596-85.13,39.433-145.293,11.009-180.772c-28.809-35.959-79.709-63.976-139.65-76.866
								c-58.433-12.566-116.633-9.376-159.676,8.756c-49.842,20.995-73.87,60.482-67.657,111.188l-0.744,0.091
								c-3.286-26.819,1.558-50.329,14.396-69.876c11.732-17.861,29.804-32.023,53.714-42.095
								c43.18-18.189,101.543-21.395,160.125-8.798c60.106,12.926,111.163,41.039,140.077,77.131
								c19.181,23.942,28.615,50.754,28.04,79.692c-0.64,32.192-13.769,66.504-39.023,101.984
								C92.14,244.856,37.885,535.335,90.893,641.877c12.528,25.182,30.242,38.278,52.648,38.925
								c0.587,0.017,1.181,0.025,1.774,0.025c36.924,0,84.938-32.776,142.762-97.467c67.152-75.126,146.518-192.48,235.893-348.801
								C637.643,35.746,718.266-55.016,770.476-42.906c28.947,6.714,49.635,45.379,63.246,118.205
								c12.018,64.304,17.271,146.832,22.352,226.642c9.05,142.185,17.598,276.485,62.714,286.769
								c30.039,6.842,73.98-42.086,134.362-149.587l0.654,0.367C993.237,547.317,949.009,596.357,918.621,589.44
								c-45.663-10.408-54.229-144.98-63.297-287.452c-5.078-79.789-10.33-162.293-22.34-226.552
								c-13.55-72.501-34.053-110.972-62.679-117.612C718.469-54.208,638.106,36.447,524.62,234.931
								c-89.4,156.367-168.797,273.764-235.984,348.929C230.667,648.713,182.458,681.575,145.31,681.577z"/>
						</g>
					</g>
					<g>
						<g>
							<path style="fill:#56D5FB;" d="M145.412,677.958c-0.795,0-1.585-0.014-2.37-0.042c-24.159-0.873-43.175-15.211-56.519-42.612
								c-24.644-50.606-27.92-144.453-8.764-251.039c9.201-51.194,23.219-102.65,40.539-148.804
								c18.646-49.687,40.262-91.619,64.248-124.632c59.459-81.83,38.51-140.813,10.465-175.884
								c-29.696-37.135-82.788-66.296-145.663-80.004c-60.449-13.18-122.14-10.023-165.021,8.443
								c-33.55,14.449-71.72,44.729-63.032,106.937l-0.743,0.104c-3.589-25.698,0.645-48.243,12.583-67.009
								c10.932-17.184,28.056-30.884,50.896-40.721c43.02-18.527,104.88-21.699,165.477-8.487
								c63.04,13.744,116.288,43.001,146.089,80.269c28.208,35.274,49.293,94.58-10.444,176.792
								c-46.23,63.629-85.354,165.734-104.655,273.128c-19.129,106.436-15.877,200.109,8.7,250.577
								c13.213,27.134,32.011,41.329,55.871,42.191c37.775,1.377,86.675-30.4,145.394-94.416
								c67.099-73.151,145.995-187.638,234.497-340.281C635.392,48.548,715.882-39.85,769.044-27.79
								c29.635,6.728,51.265,45.01,66.127,117.037c13.123,63.599,19.581,145.185,25.826,224.086
								c11.123,140.526,21.63,273.261,67.809,283.552c30.563,6.803,74.443-40.841,134.123-145.676l0.652,0.371
								c-59.865,105.16-104.008,152.931-134.938,146.036c-46.72-10.411-57.247-143.413-68.393-284.225
								c-6.244-78.877-12.7-160.44-25.814-223.993c-14.796-71.708-36.24-109.801-65.559-116.456
								c-52.79-11.977-133.022,76.3-245.271,269.903c-88.528,152.69-167.457,267.221-234.592,340.412
								C231.359,646.113,183.063,677.957,145.412,677.958z"/>
						</g>
					</g>
					<g>
						<g>
							<path style="fill:#92C2D6;" d="M145.513,674.398c-1.018,0-2.023-0.022-3.026-0.066c-25.713-1.124-45.876-16.66-59.929-46.176
								c-24.477-51.412-28.234-143.847-10.05-247.263c8.763-49.831,22.303-99.782,39.159-144.451
								c18.146-48.088,39.342-88.635,63-120.515c58.348-78.617,37.646-136.411,10.004-171.051
								c-30.558-38.293-85.868-68.619-151.748-83.2c-63.396-14.031-127.076-11.037-170.34,8.009
								c-31.897,14.042-67.955,43.287-58.591,102.863l-0.741,0.116c-9.438-60.047,26.892-89.517,59.03-103.666
								c43.405-19.108,107.257-22.12,170.805-8.055c66.045,14.618,121.509,45.039,152.172,83.465
								c27.806,34.845,48.645,92.965-9.988,171.966c-45.534,61.357-83.673,160.292-102.023,264.648
								c-18.158,103.269-14.424,195.533,9.988,246.81c13.924,29.246,33.87,44.639,59.284,45.749
								c38.384,1.704,87.593-29.074,146.301-91.397c67.074-71.206,145.537-182.885,233.211-331.934
								C633.263,61.154,713.653-24.923,767.761-12.911C798.104-6.174,820.694,31.741,836.821,103
								c14.24,62.923,21.912,143.606,29.331,221.634c13.209,138.931,25.686,270.156,72.956,280.446
								c31.102,6.777,74.918-39.621,133.916-141.833l0.65,0.375c-59.184,102.53-103.247,149.037-134.727,142.191
								c-47.805-10.407-60.307-141.897-73.543-281.108c-7.416-78.004-15.085-158.664-29.315-221.54
								C820.034,32.218,797.63-5.511,767.599-12.178c-53.762-11.942-133.877,74.03-244.921,262.809
								c-87.702,149.098-166.199,260.822-233.311,332.069C232.033,643.565,183.655,674.394,145.513,674.398z"/>
						</g>
					</g>
					<g>
						<g>
							<path style="fill:#ABDCF1;" d="M145.63,670.887c-1.269,0-2.523-0.032-3.771-0.097c-27.372-1.411-48.747-18.251-63.532-50.052
								C54.069,568.56,49.893,477.571,67.155,377.342c17.728-102.934,54.028-196.425,99.593-256.502
								c57.254-75.483,36.832-132.071,9.619-166.252c-31.394-39.431-88.954-70.94-157.921-86.449
								c-66.426-14.938-132.088-12.15-175.648,7.456c-30.293,13.634-64.305,41.866-54.307,98.933l-0.738,0.13
								c-7.98-45.546,10.948-80.038,54.737-99.747c43.703-19.67,109.544-22.476,176.121-7.504
								c69.131,15.545,126.845,47.151,158.344,86.714c27.378,34.388,47.936,91.305-9.608,167.172
								c-45.495,59.985-81.744,153.357-99.452,256.176C50.656,477.554,54.811,568.378,79.008,620.422
								c14.659,31.529,35.818,48.224,62.891,49.62c38.994,1.997,88.54-27.727,147.262-88.383
								c67.079-69.288,145.15-178.215,232.042-323.756C631.255,73.569,711.537-10.225,766.617,1.723
								c31.073,6.741,54.641,44.3,72.049,114.824c15.372,62.274,24.268,142.094,32.871,219.285
								c15.314,137.403,29.778,267.187,78.171,277.468c31.655,6.733,75.403-38.434,133.733-138.054l0.646,0.379
								c-58.516,99.938-102.539,145.207-134.535,138.409c-48.923-10.395-63.417-140.438-78.761-278.119
								c-8.601-77.167-17.494-156.962-32.854-219.188C820.604,46.508,797.224,9.13,766.458,2.457
								c-54.716-11.874-134.745,71.81-244.61,255.832C434.925,403.878,356.819,512.852,289.7,582.181
								C232.691,641.066,184.248,670.886,145.63,670.887z"/>
						</g>
					</g>
					<g>
						<g>
							<path style="fill:#B9EDE5;" d="M145.757,667.429c-1.552,0-3.086-0.045-4.609-0.136c-29.143-1.74-51.799-19.999-67.339-54.269
								c-23.984-52.891-28.518-142.392-12.127-239.415c16.864-99.82,52.251-190.226,97.088-248.035
								c56.18-72.427,36.074-127.799,9.314-161.496c-32.198-40.546-92.033-73.26-164.163-89.755
								c-69.528-15.899-137.17-13.369-180.942,6.771c-41.228,18.969-58.589,51.878-50.206,95.169l-0.736,0.142
								c-8.457-43.669,9.05-76.863,50.628-95.992c43.917-20.206,111.738-22.755,181.423-6.821
								c72.292,16.532,132.281,49.342,164.583,90.019c26.926,33.907,47.168,89.61-9.309,162.422
								c-44.764,57.714-80.098,147.997-96.941,247.7c-16.367,96.882-11.854,186.22,12.07,238.98
								c15.417,33.996,37.858,52.108,66.701,53.829c39.635,2.374,89.515-26.356,148.276-85.366
								c67.113-67.397,144.828-173.628,230.984-315.741C629.359,85.8,709.554,4.251,765.609,16.126
								c31.825,6.741,56.39,43.959,75.097,113.78c16.518,61.655,26.649,140.649,36.448,217.042
								c17.435,135.937,33.901,264.334,83.446,274.599c32.213,6.68,75.893-37.27,133.568-134.333l0.645,0.383
								c-57.86,97.375-101.803,141.432-134.365,134.685c-50.068-10.373-66.568-139.028-84.038-275.237
								c-9.795-76.369-19.923-155.338-36.429-216.944c-18.626-69.523-43.005-106.563-74.527-113.24
								c-55.709-11.8-135.641,69.637-244.36,248.965C434.907,407.989,357.156,514.268,290,581.707
								C233.331,638.616,184.835,667.428,145.757,667.429z"/>
						</g>
					</g>
					<g>
						<g>
							<path style="fill:#87C2DA;" d="M145.904,664.024c-1.872,0-3.722-0.062-5.553-0.187
								c-31.034-2.115-55.041-21.914-71.354-58.848c-23.65-53.542-28.473-141.504-12.901-235.298
								c16.052-96.684,50.547-183.999,94.64-239.555c43.635-54.977,46.778-109.193,9.09-156.789
								c-72.957-92.135-269.03-128.366-356.692-87.14c-39.108,18.393-55.115,50.058-46.29,91.572l-0.733,0.156
								c-8.906-41.896,7.245-73.849,46.705-92.407c44.052-20.717,113.852-22.964,186.715-6.012
								c35.333,8.221,69.243,20.652,98.063,35.95c31.315,16.622,55.815,35.939,72.821,57.415
								c26.45,33.402,46.343,87.879-9.09,157.72C60.453,245.099,18.488,488.787,69.683,604.687
								c16.192,36.659,39.986,56.309,70.72,58.403c40.274,2.737,90.519-24.962,149.348-82.348
								c67.18-65.532,144.579-169.121,230.048-307.89C627.581,97.855,707.697,18.516,764.733,30.303
								c32.6,6.736,58.181,43.625,78.204,112.774c17.682,61.063,29.062,139.27,40.067,214.902
								c19.576,134.536,38.067,261.611,88.798,271.851c32.75,6.605,76.386-36.134,133.419-130.67l0.643,0.387
								c-57.217,94.841-101.1,137.697-134.211,131.019c-51.247-10.345-69.774-137.673-89.391-272.478
								c-11.002-75.607-22.379-153.789-40.046-214.802c-19.939-68.856-45.333-105.574-77.636-112.248
								c-56.698-11.721-136.548,67.514-244.145,242.208c-85.501,138.821-162.939,242.459-230.163,308.034
								C233.953,636.218,185.422,664.023,145.904,664.024z"/>
						</g>
					</g>
					<g>
						<g>
							<path style="fill:#8FD1ED;" d="M146.077,660.67c-2.234,0-4.435-0.083-6.615-0.251c-32.587-2.507-58.725-24.576-75.587-63.823
								c-11.896-27.687-19.038-62.718-21.228-104.121c-2.081-39.32,0.598-83.199,7.745-126.894
								c15.297-93.519,48.922-177.734,92.253-231.051c42.817-52.685,45.908-105.288,8.94-152.122
								C77.394-111.583-128.078-151.7-216.758-109.077c-37.075,17.82-51.788,48.291-42.551,88.121l-0.73,0.17
								c-9.326-40.212,5.528-70.977,42.957-88.967c22.06-10.603,51.921-16.55,86.356-17.197
								c32.991-0.623,69.521,3.576,105.651,12.133c36.764,8.708,72.023,21.701,101.967,37.573
								c32.589,17.275,57.917,37.188,75.282,59.187c37.212,47.143,34.118,100.07-8.947,153.059
								c-43.251,53.219-76.818,137.306-92.095,230.699c-14.788,90.4-9.766,176.604,13.432,230.598
								c16.745,38.974,42.664,60.887,74.955,63.371c40.915,3.146,91.557-23.538,150.481-79.318
								c67.28-63.691,144.406-164.692,229.237-300.199C625.927,109.732,705.999,32.579,763.991,44.258
								c33.398,6.728,60.018,43.302,81.376,111.812c18.861,60.499,31.503,137.958,43.729,212.867
								c21.738,133.196,42.271,259.006,94.215,269.211c33.267,6.537,76.88-35.023,133.285-127.071l0.64,0.393
								c-56.589,92.344-100.447,134.021-134.069,127.414c-52.455-10.306-73.029-136.364-94.811-269.826
								c-12.222-74.883-24.859-152.315-43.705-212.764c-21.27-68.225-47.702-104.631-80.809-111.3
								c-57.666-11.619-137.468,65.436-243.971,235.559c-84.864,135.56-162.031,236.61-229.356,300.345
								C234.562,633.866,186.012,660.667,146.077,660.67z"/>
						</g>
					</g>
					<g>
						<g>
							<path style="fill:#1F51FA;" d="M146.272,657.369c-2.638,0-5.236-0.109-7.804-0.331c-34.713-2.985-62.389-26.918-80.038-69.21
								c-11.654-27.929-18.717-62.611-20.993-103.086c-2.167-38.54,0.296-81.233,7.122-123.465
								c14.599-90.326,47.376-171.438,89.925-222.537c42.013-50.454,45.079-101.458,8.866-147.497
								C109.479-51.82,40.976-89.175-39.896-108.681c-78.103-18.839-153.511-17.334-196.796,3.926
								c-35.14,17.259-48.624,46.596-38.997,84.84l-0.728,0.183c-9.724-38.628,3.897-68.261,39.393-85.695
								c22.029-10.82,52.449-16.768,87.971-17.2c33.95-0.417,71.767,4.158,109.332,13.218
								C41.31-89.866,109.969-52.412,143.941-9.221c36.458,46.352,33.388,97.682-8.88,148.441
								c-42.466,50.998-75.183,131.978-89.761,222.176c-14.081,87.119-8.914,171.658,13.822,226.143
								c17.534,42.018,44.994,65.792,79.41,68.752c41.602,3.575,92.63-22.087,151.677-76.282
								c67.414-61.875,144.31-160.344,228.552-292.671C624.378,121.438,704.38,46.418,763.37,57.989
								c34.221,6.715,61.898,42.986,84.613,110.886c20.06,59.962,33.979,136.71,47.44,210.931
								c23.926,131.925,46.525,256.534,99.722,266.698c33.816,6.46,77.382-33.942,133.172-123.528l0.637,0.396
								c-55.973,89.877-99.788,130.396-133.949,123.868c-53.702-10.26-76.346-135.115-100.319-267.301
								c-13.456-74.195-27.37-150.916-47.413-210.827c-22.622-67.622-50.114-103.73-84.047-110.388
								c-58.652-11.506-138.401,63.408-243.831,229.016c-84.277,132.383-161.216,230.902-228.678,292.821
								C235.145,631.567,186.601,657.367,146.272,657.369z"/>
						</g>
					</g>
					<g>
						<g>
							<path style="fill:#4770FB;" d="M1014.606,656.317c-2.525,0-5.002-0.226-7.436-0.678
								c-54.98-10.206-79.719-133.914-105.91-264.885c-14.706-73.543-29.914-149.59-51.173-208.99
								c-23.997-67.05-52.571-102.874-87.357-109.517c-59.608-11.379-139.339,61.42-243.723,222.575
								c-83.741,129.286-160.496,225.325-228.129,285.449c-55.17,49.045-103.682,73.844-144.375,73.846
								c-3.092,0-6.133-0.143-9.134-0.43c-36.981-3.528-66.273-29.478-84.71-75.043c-22.584-55.814-27.706-136.684-14.053-221.871
								c13.96-87.097,45.907-165.092,87.651-213.987c41.225-48.285,44.289-97.707,8.863-142.922
								C100.62-44.167,29.7-82.817-54.592-103.526c-81.455-20.012-158.892-18.976-202.091,2.702
								c-33.298,16.709-45.615,44.964-35.619,81.71l-0.724,0.197c-10.101-37.133,2.35-65.688,36.006-82.577
								c43.353-21.755,120.988-22.813,202.606-2.76C30.036-83.507,101.11-44.757,135.709-0.597
								c16.937,21.616,25.258,44.27,24.733,67.333c-0.577,25.337-11.887,51.087-33.616,76.539
								C41.39,243.347,4.997,458.858,53.353,578.364c18.326,45.289,47.402,71.077,84.087,74.578
								c42.282,4.027,93.74-20.603,152.939-73.23c67.583-60.079,144.294-156.067,227.999-285.297
								C622.946,132.975,702.923,60.065,762.87,71.512c35.069,6.697,63.829,42.678,87.923,110
								c21.277,59.452,36.49,135.526,51.203,209.096c26.14,130.715,50.83,254.181,105.31,264.295
								c34.357,6.374,77.881-32.888,133.065-120.039l0.635,0.4C1089.523,616.566,1048.059,656.317,1014.606,656.317z"/>
						</g>
					</g>
					<g>
						<g>
							<path style="fill:#A3E3F3;" d="M1027.305,664.762c-2.589,0-5.132-0.226-7.634-0.677
								c-56.293-10.146-83.152-132.764-111.588-262.582c-15.974-72.927-32.492-148.337-54.988-207.254
								c-25.396-66.51-55.077-102.061-90.741-108.685c-60.589-11.256-140.286,59.479-243.649,216.24
								c-83.258,126.27-159.872,219.88-227.714,278.23c-59.546,51.215-111.638,74.875-154.839,70.336
								c-39.4-4.146-70.384-32.272-89.604-81.341c-21.967-56.085-27.08-135.163-14.025-216.958
								c13.38-83.835,44.52-158.706,85.434-205.416c40.451-46.175,43.538-94.03,8.928-138.391
								C91.807-36.696,18.451-76.654-69.341-98.623c-84.885-21.242-164.358-20.728-207.409,1.341
								c-31.546,16.171-42.751,43.395-32.406,78.727l-0.72,0.211c-10.46-35.722,0.876-63.249,32.783-79.605
								c43.205-22.148,122.879-22.685,207.933-1.401C18.79-77.343,92.299-37.285,127.476,7.803
								c16.578,21.249,24.694,43.358,24.123,65.714c-0.627,24.518-11.756,49.291-33.078,73.632
								C34.55,243.015-0.089,447.907,47.246,568.756c19.11,48.791,49.881,76.755,88.984,80.868
								c42.988,4.517,94.888-19.084,154.272-70.158c67.789-58.306,144.357-151.863,227.576-278.074
								C621.625,144.35,701.581,73.515,762.49,84.826c35.942,6.676,65.809,42.381,91.306,109.155
								c22.516,58.97,39.04,134.407,55.019,207.36c28.381,129.567,55.188,251.948,110.989,262.005
								c34.867,6.291,78.377-31.855,132.973-116.61l0.631,0.406C1102.522,626.138,1061.154,664.762,1027.305,664.762z"/>
						</g>
					</g>
					<g>
						<g>
							<path style="fill:#4F8CF9;" d="M1040.334,673.256c-2.652,0-5.257-0.224-7.826-0.673
								c-57.642-10.076-86.647-131.666-117.357-260.395c-17.26-72.349-35.107-147.159-58.861-205.621
								c-26.818-66.001-57.631-101.293-94.2-107.895C700.542,87.56,620.861,156.25,518.503,308.669
								c-82.831,123.338-159.356,214.572-227.45,271.171c-54.29,45.124-102.649,67.924-143.969,67.926
								c-4.167,0-8.256-0.231-12.279-0.695c-41.98-4.841-74.732-35.314-94.716-88.124C18.816,502.728,13.794,425.54,26.31,347.173
								c6.233-39.028,16.358-75.681,30.09-108.936c14.558-35.254,32.452-64.818,53.185-87.872
								c39.689-44.128,42.821-90.434,9.058-133.913C83.041-29.395,7.237-70.67-84.133-93.959
								c-88.385-22.527-169.91-22.589-212.758-0.159c-29.891,15.646-40.048,41.889-29.374,75.89l-0.716,0.225
								c-5.598-17.832-5.621-33.556-0.066-46.734c5.182-12.295,15.211-22.404,29.808-30.045
								c43.006-22.512,124.734-22.474,213.291,0.097C7.579-71.357,83.535-29.982,119.236,15.992
								c16.205,20.867,24.103,42.428,23.475,64.084c-0.688,23.711-11.645,47.528-32.567,70.791
								C20.038,251.054-0.788,448.805,40.79,558.681c19.878,52.53,52.417,82.837,94.101,87.644
								c43.706,5.045,96.082-17.523,155.683-67.063c68.039-56.552,144.516-147.733,227.306-271.012
								C620.423,155.559,700.355,86.762,762.222,97.934c36.843,6.651,67.84,42.093,94.762,108.351
								c23.776,58.515,41.63,133.354,58.896,205.729c30.65,128.482,59.602,249.839,116.758,259.83
								c35.393,6.201,78.87-30.851,132.882-113.236l0.627,0.411C1115.849,635.738,1074.572,673.256,1040.334,673.256z"/>
						</g>
					</g>
					<g>
						<g>
							<path style="fill:#95B0E0;" d="M1053.712,681.807c-2.712,0-5.383-0.223-8.015-0.669
								c-59.028-10.001-90.214-130.621-123.23-258.322c-18.565-71.805-37.761-146.054-62.798-204.089
								c-28.268-65.522-60.239-100.57-97.74-107.146c-29.603-5.19-63.789,7.532-101.611,37.814
								c-41.552,33.268-89.309,89.133-141.944,166.045c-82.455,120.485-158.936,209.394-227.319,264.259
								c-60.016,48.15-113.084,69.72-157.729,64.1c-44.725-5.627-79.315-38.614-100.032-95.396
								C12.789,492.207,7.935,417.01,19.973,342.091c12.587-78.332,41.414-145.164,81.17-188.187
								c38.94-42.136,42.139-86.908,9.251-129.477C74.323-22.263-3.948-64.863-98.981-89.53
								c-91.969-23.872-175.561-24.562-218.154-1.798c-28.729,15.353-37.643,39.98-26.496,73.197l-0.711,0.238
								c-5.766-17.18-6.143-32.331-1.121-45.033c4.694-11.874,14.106-21.652,27.975-29.063
								c42.753-22.848,126.552-22.183,218.696,1.734c95.188,24.708,173.61,67.408,209.78,114.224
								c15.815,20.471,23.481,41.478,22.787,62.44c-0.759,22.912-11.553,45.792-32.081,68.005
								C14.97,248.262-5.574,439.69,33.997,548.146c20.614,56.5,54.993,89.319,99.421,94.908
								c44.434,5.593,97.315-15.922,157.167-63.94c68.326-54.817,144.756-143.673,227.169-264.098
								C619.316,166.613,699.221,99.831,762.058,110.842c37.771,6.623,69.925,41.815,98.3,107.588
								c25.061,58.088,44.264,132.365,62.836,204.197c32.954,127.46,64.08,247.852,122.629,257.771
								c35.928,6.092,79.356-29.866,132.8-109.913l0.623,0.416C1129.517,645.386,1088.335,681.807,1053.712,681.807z"/>
						</g>
					</g>
					<g>
						<g>
							<path style="fill:#A1D8F0;" d="M1067.442,690.411c-2.771,0-5.503-0.222-8.198-0.664
								c-60.449-9.919-93.845-129.625-129.201-256.359c-19.891-71.297-40.458-145.021-66.802-202.656
								c-29.745-65.076-62.901-99.892-101.363-106.438c-30.061-5.118-64.499,7.2-102.358,36.607
								c-41.563,32.283-89.061,86.52-141.177,161.205C436.203,439.82,359.711,526.454,290.992,579.6
								c-60.305,46.637-113.902,67.136-159.3,60.934c-24.535-3.354-46.272-14.564-64.609-33.321
								c-17-17.39-30.774-40.891-40.938-69.85C6.489,481.362,1.88,408.27,13.5,336.824c12.184-74.909,40.279-138.671,79.111-179.54
								c38.207-40.209,41.492-83.471,9.499-125.111c-36.483-47.483-117.231-91.416-216-117.517
								c-45.08-11.914-89.475-18.735-128.386-19.728c-40.984-1.05-73.904,4.539-95.199,16.155
								c-27.23,14.853-35.229,38.621-23.773,70.645l-0.706,0.253c-5.926-16.567-6.64-31.179-2.12-43.431
								c4.233-11.475,13.061-20.938,26.239-28.125c21.41-11.678,54.465-17.297,95.577-16.246
								c38.969,0.995,83.423,7.825,128.559,19.753c45.934,12.139,89.724,28.841,126.636,48.3
								c40.001,21.086,71.042,45.114,89.767,69.486c15.414,20.063,22.84,40.516,22.071,60.794
								c-0.839,22.126-11.478,44.093-31.62,65.291C54.425,198.561,26.399,262.183,14.24,336.945
								C2.64,408.27,7.237,481.228,26.852,537.114c14.856,42.327,45.122,94.499,104.941,102.676
								c45.195,6.173,98.601-14.273,158.74-60.784c68.659-53.099,145.099-139.677,227.195-257.33
								c100.603-144.17,180.514-208.973,244.276-198.122c38.725,6.591,72.063,41.548,101.92,106.867
								c26.367,57.687,46.943,131.441,66.842,202.765c35.29,126.498,68.623,245.979,128.601,255.821
								c36.435,5.983,79.834-28.909,132.715-106.645l0.62,0.422C1143.531,655.065,1102.44,690.411,1067.442,690.411z"/>
						</g>
					</g>
					<g>
						<g>
							<path style="fill:#A4AED1;" d="M1081.535,699.076c-2.83,0-5.619-0.219-8.378-0.656
								c-61.91-9.833-97.55-128.684-135.283-254.513c-21.238-70.823-43.199-144.059-70.875-201.318
								c-31.251-64.659-65.62-99.256-105.069-105.771c-30.514-5.039-65.199,6.88-103.101,35.426
								c-41.575,31.313-88.82,83.946-140.424,156.434C436.52,443.704,359.963,528.111,290.86,579.555
								c-60.632,45.136-114.789,64.56-160.962,57.728c-26.094-3.86-49.152-16.139-68.536-36.493
								c-17.927-18.825-32.295-44.042-42.706-74.948C-0.077,470.223-4.363,399.348,6.896,331.39
								C18.736,259.93,46.119,199.238,84,160.495c38.021-38.884,41.32-79.524,9.805-120.792
								C56.974-8.525-26.263-53.793-128.855-81.388c-46.676-12.555-92.467-19.903-132.421-21.252
								c-42.143-1.423-75.571,4.03-96.665,15.768c-25.822,14.369-32.956,37.324-21.205,68.229l-0.701,0.267
								c-6.08-15.991-7.11-30.095-3.062-41.922c3.798-11.097,12.076-20.258,24.603-27.229
								c21.213-11.804,54.773-17.287,97.055-15.862c40.011,1.35,85.86,8.708,132.591,21.278
								C-81.093-69.318-35.809-51.945,2.297-31.873c41.361,21.788,73.211,46.381,92.105,71.121
								c14.998,19.641,22.171,39.537,21.318,59.137c-0.929,21.351-11.421,42.423-31.184,62.635
								C0.908,246.55-16.677,418.586,19.367,525.602c21.618,64.183,60.91,103.581,110.64,110.938
								c45.969,6.801,99.939-12.574,160.404-57.587c69.04-51.397,145.543-135.748,227.382-250.711
								c99.658-139.992,179.565-202.846,244.258-192.165c39.708,6.558,74.258,41.291,105.623,106.185
								c27.701,57.314,49.671,130.578,70.918,201.429c37.663,125.598,73.238,244.229,134.682,253.987
								c36.909,5.854,80.304-27.97,132.635-103.432l0.617,0.428C1157.905,664.786,1116.898,699.076,1081.535,699.076z"/>
						</g>
					</g>
					<g>
						<g>
							<path style="fill:#63B0CE;" d="M1095.988,707.808c-2.886,0-5.733-0.216-8.553-0.649
								c-63.405-9.739-101.325-127.791-141.471-252.774c-22.609-70.386-45.988-143.169-75.021-200.083
								c-32.788-64.273-68.398-98.668-108.866-105.149c-30.956-4.96-65.896,6.572-103.837,34.27
								c-41.588,30.36-88.587,81.411-139.688,151.734c-81.692,112.419-158.371,194.646-227.906,244.401
								c-60.999,43.646-115.742,61.982-162.72,54.476c-53.263-8.502-94.846-51.185-117.087-120.188
								C-6.902,458.81-10.794,390.272,0.16,325.807c11.552-67.986,38.237-125.61,75.139-162.257
								c37.303-37.047,40.72-76.256,10.155-116.539C48.888-1.182-38.999-48.954-143.906-77.662
								c-101.609-27.806-193.713-30.761-234.647-7.531c-24.49,13.899-30.803,36.082-18.765,65.932l-0.695,0.28
								c-12.201-30.254-5.779-52.75,19.09-66.864c20.995-11.916,55.066-17.248,98.524-15.414
								c41.07,1.731,88.337,9.641,136.69,22.873c49.232,13.473,96.032,31.529,135.34,52.218
								C34.369-3.674,67.019,21.474,86.051,46.557c14.575,19.209,21.486,38.547,20.543,57.479
								c-1.026,20.587-11.377,40.789-30.767,60.045C1.919,237.48-26.915,394.28,11.551,513.616
								c22.151,68.72,63.522,111.222,116.492,119.677c46.771,7.469,101.333-10.817,162.166-54.346
								c69.47-49.707,146.091-131.879,227.735-244.233c98.735-135.872,178.63-196.81,244.252-186.304
								c40.721,6.521,76.511,41.047,109.415,105.549c29.061,56.968,52.449,129.78,75.067,200.195
								c40.073,124.756,77.924,242.593,140.871,252.262c37.389,5.756,80.757-27.051,132.544-100.266l0.612,0.434
								C1172.624,674.56,1131.706,707.808,1095.988,707.808z"/>
						</g>
					</g>
					<g>
						<g>
							<path style="fill:#689CFA;" d="M1110.825,716.609c-2.94,0-5.847-0.214-8.725-0.641
								c-64.942-9.645-105.182-126.953-147.784-251.15c-24.006-69.982-48.829-142.348-79.249-198.941
								c-34.357-63.916-71.239-98.12-112.753-104.565c-31.407-4.874-66.581,6.275-104.566,33.139
								c-41.601,29.421-88.355,78.913-138.965,147.1C437.221,451.44,360.361,531.536,290.34,579.611
								c-61.41,42.162-116.784,59.374-164.581,51.171C69.07,621.048,25.367,575.102,2.701,501.409
								c-16.683-54.241-20.114-120.326-9.413-181.31c11.319-64.501,37.323-119.073,73.221-153.663
								c36.598-35.265,40.15-73.061,10.559-112.339C40.285,5.275-50.175-43.871-159.012-74.16
								c-105.444-29.344-199.766-33.157-240.294-9.71c-23.244,13.447-28.785,34.9-16.469,63.765l-0.689,0.294
								c-12.489-29.27-6.842-51.04,16.783-64.708c20.763-12.012,55.344-17.166,100.006-14.901
								c42.149,2.136,90.858,10.622,140.864,24.538c50.928,14.173,99.263,32.927,139.78,54.234
								C25.093,2.555,58.53,28.246,77.667,53.647c14.138,18.766,20.778,37.544,19.736,55.815
								c-1.131,19.833-11.35,39.185-30.373,57.515c-80.35,77.42-95.441,230.726-63.611,334.212
								c22.578,73.408,66.071,119.169,122.467,128.852c47.601,8.18,102.788-9.002,164.03-51.05
								c69.954-48.027,146.753-128.065,228.267-237.889c97.831-131.81,177.732-190.868,244.247-180.532
								c41.763,6.484,78.823,40.814,113.299,104.951c30.449,56.647,55.282,129.042,79.298,199.053
								c42.526,123.976,82.694,241.074,147.186,250.651c37.876,5.624,81.202-26.154,132.458-97.152l0.607,0.439
								C1187.719,684.39,1146.89,716.609,1110.825,716.609z"/>
						</g>
					</g>
					<g>
						<g>
							<path style="fill:#6285FC;" d="M1126.044,725.479c-2.993,0-5.955-0.211-8.891-0.632
								c-66.515-9.545-109.112-126.166-154.211-249.634c-25.428-69.614-51.721-141.598-83.557-197.898
								c-35.959-63.591-74.143-97.619-116.733-104.029c-31.83-4.789-67.255,5.985-105.283,32.028
								c-41.613,28.497-88.128,76.453-138.254,142.533C437.612,455.292,360.506,533.301,289.94,579.708
								c-50.776,33.393-97.634,50.213-139.698,50.215c-9.187,0.001-18.138-0.801-26.859-2.408
								c-31.233-5.754-58.593-21.736-81.322-47.504c-20.593-23.347-37.117-54.963-47.785-91.433
								C-21.525,434.564-24.362,372.67-13.712,314.3c11.133-61.018,36.467-112.561,71.337-145.134
								c35.906-33.542,39.608-69.948,11.002-108.207C31.692,11.559-61.355-38.961-174.205-70.885
								c-109.36-30.936-205.93-35.656-246.023-12.02c-22.072,13.011-26.88,33.775-14.292,61.715l-0.684,0.308
								c-12.772-28.346-7.861-49.431,14.595-62.669c40.26-23.733,137.061-19.045,246.607,11.945
								C-121.344-56.71-71.451-37.247-29.717-15.32C15.804,8.596,50.019,34.818,69.228,60.51
								c13.693,18.313,20.054,36.534,18.908,54.154c-1.242,19.094-11.335,37.615-29.999,55.05
								C-11.871,235.11-39.015,372.102-5.004,488.367c22.876,78.201,68.52,127.356,128.523,138.41
								c48.457,8.93,104.311-7.12,166.01-47.696c70.494-46.359,147.538-124.311,228.989-231.688
								c50.175-66.145,96.748-114.155,138.428-142.699c38.189-26.154,73.793-36.971,105.818-32.15
								c42.835,6.446,81.195,40.596,117.275,104.401c31.866,56.355,58.17,128.368,83.607,198.011
								c45.02,123.251,87.542,239.667,153.613,249.149c38.335,5.5,81.63-25.276,132.358-94.089l0.604,0.445
								C1203.181,694.271,1162.441,725.479,1126.044,725.479z"/>
						</g>
					</g>
					<g>
						<g>
							<path style="fill:#57C8E6;" d="M1141.662,734.431c-3.046,0-6.063-0.208-9.057-0.623
								c-68.129-9.446-113.128-125.435-160.77-248.233c-26.877-69.278-54.669-140.914-87.951-196.948
								c-37.596-63.296-77.113-97.163-120.812-103.537c-32.259-4.703-67.919,5.704-105.99,30.936
								c-41.623,27.588-87.903,74.03-137.555,138.035c-81.512,105.08-158.928,181.047-230.097,225.792
								c-50.014,31.444-96.417,47.275-138.38,47.276c-10.368,0.001-20.456-0.965-30.27-2.899
								c-33.083-6.523-61.972-23.902-85.866-51.654c-21.612-25.102-38.671-58.701-49.334-97.165
								c-14.629-52.771-16.913-112.069-6.431-166.972c10.988-57.55,35.665-106.099,69.485-136.702
								c35.228-31.875,39.092-66.913,11.485-104.141C15.869,7.923-97.835-41.486-189.489-67.829
								c-113.355-32.579-212.211-38.254-251.847-14.46c-20.973,12.591-25.089,32.702-12.235,59.776l-0.678,0.321
								c-13.047-27.481-8.833-47.917,12.527-60.74c39.805-23.898,138.894-18.252,252.44,14.382
								C-97.509-42.173,16.36,7.326,60.723,67.148c13.24,17.854,19.316,35.516,18.059,52.495
								c-1.359,18.367-11.332,36.081-29.644,52.649c-66.909,60.545-93.922,190.771-62.834,302.917
								C8.99,557.051,58.059,611.098,120.926,623.493c49.344,9.728,105.902-5.168,168.106-44.275
								c71.095-44.698,148.445-120.606,229.904-225.616c49.7-64.07,96.041-110.568,137.732-138.201
								c38.23-25.338,74.07-35.783,106.513-31.054c43.937,6.409,83.63,40.393,121.348,103.895
								c33.314,56.088,61.118,127.754,88.006,197.061c47.56,122.588,92.48,238.377,160.174,247.762
								c38.768,5.388,82.041-24.414,132.257-91.073l0.6,0.451C1219.03,704.215,1178.381,734.431,1141.662,734.431z"/>
						</g>
					</g>
					<g>
						<g>
							<path style="fill:#9BE1F2;" d="M1157.68,743.465c-3.098,0-6.168-0.204-9.217-0.612
								c-69.781-9.346-117.226-124.756-167.456-246.941c-28.356-68.977-57.678-140.301-92.438-196.096
								c-39.268-63.03-80.153-96.751-124.99-103.09c-32.676-4.624-68.567,5.428-106.682,29.865
								c-41.632,26.693-87.68,71.644-136.863,133.606c-81.599,102.795-159.399,176.763-231.24,219.849
								c-49.187,29.499-95.059,44.341-136.838,44.343c-11.673,0-23.02-1.158-34.038-3.479
								C50.857,606.786-0.638,548.858-23.362,461.978c-13.422-51.316-15.112-107.935-4.759-159.426
								c11.038-54.899,34.438-99.299,67.671-128.4c34.562-30.267,38.599-63.961,11.998-100.149
								C7.274,13.775-109.939-37.287-204.871-64.991c-55.085-16.076-108.232-26.418-153.692-29.908
								c-48.233-3.703-84.227,0.752-104.082,12.886c-19.943,12.188-23.403,31.685-10.285,57.948l-0.671,0.335
								c-13.322-26.672-9.768-46.497,10.565-58.923c19.99-12.217,56.137-16.709,104.53-12.995
								c45.512,3.495,98.711,13.846,153.845,29.937C-109.611-37.973,7.767,13.18,52.151,73.559
								c12.782,17.388,18.568,34.494,17.197,50.843c-1.48,17.654-11.34,34.583-29.305,50.315
								c-64.951,56.876-91.312,177.606-62.68,287.071C0.014,548.384,51.3,606.113,118.073,620.175
								c50.264,10.589,107.574-3.133,170.336-40.773c71.763-43.039,149.496-116.947,231.038-219.672
								c49.235-62.026,95.345-107.033,137.047-133.77c38.27-24.535,74.331-34.62,107.191-29.977
								c45.069,6.372,86.128,40.207,125.521,103.437c34.793,55.848,64.127,127.202,92.494,196.207
								c50.146,121.98,97.511,237.194,166.861,246.482c39.216,5.258,82.433-23.569,132.139-88.104l0.594,0.457
								C1235.261,714.229,1194.705,743.465,1157.68,743.465z"/>
						</g>
					</g>
					<g>
						<g>
							<path style="fill:#B1CDFE;" d="M1174.109,752.581c-3.148,0-6.274-0.201-9.38-0.603
								c-71.471-9.248-121.406-124.132-174.273-245.762c-29.864-68.707-60.745-139.754-97.016-195.336
								c-40.979-62.795-83.263-96.386-129.268-102.693c-33.084-4.534-69.202,5.158-107.357,28.809
								c-41.64,25.811-87.459,69.294-136.185,129.244c-81.762,100.594-160.02,172.605-232.602,214.033
								c-63.544,36.271-121.831,48.812-173.242,37.271c-36.934-8.29-68.971-28.669-95.222-60.57
								c-23.687-28.786-41.694-66.333-52.073-108.581c-12.201-49.666-13.273-103.542-3.02-151.704
								c10.959-51.473,33.744-93.068,65.891-120.287c33.91-28.712,38.129-61.086,12.541-96.226
								C-1.308,19.461-122.072-33.272-220.346-62.378c-56.043-16.599-112.222-27.906-158.187-31.838
								c-49.523-4.236-86.049-0.043-105.626,12.128c-18.979,11.8-21.818,30.716-8.438,56.224l-0.664,0.349
								c-13.595-25.917-10.665-45.165,8.706-57.209c19.715-12.257,56.402-16.489,106.086-12.239
								c46.014,3.937,102.246,15.253,158.336,31.866C-121.741-33.957-0.812,18.869,43.51,79.734
								c12.319,16.916,17.81,33.469,16.32,49.198c-1.605,16.955-11.357,33.119-28.983,48.042
								c-63.002,53.344-88.755,164.882-62.627,271.239c22.086,89.906,76.938,152.934,146.73,168.6
								c51.22,11.495,109.328-1.017,172.706-37.19c72.501-41.383,150.689-113.334,232.392-213.855
								c48.778-60.015,94.66-103.554,136.371-129.408c38.31-23.746,74.594-33.473,107.855-28.915
								c46.233,6.338,88.69,40.038,129.794,103.027c36.305,55.635,67.199,126.711,97.075,195.446
								c52.78,121.429,102.633,236.124,173.683,245.316c39.615,5.126,82.802-22.736,132.009-85.183l0.59,0.465
								C1251.884,724.31,1211.426,752.581,1174.109,752.581z"/>
						</g>
					</g>
				</g>
			</g>
		</g>
	</g>
</g>
<g id="Layer_1">
</g>
</svg>
