<?xml version="1.0" encoding="utf-8"?>
<!-- Generator: Adobe Illustrator 27.5.0, SVG Export Plug-In . SVG Version: 6.00 Build 0)  -->
<svg version="1.1" xmlns="http://www.w3.org/2000/svg" xmlns:xlink="http://www.w3.org/1999/xlink" x="0px" y="0px"
	 viewBox="0 0 800 500" style="enable-background:new 0 0 800 500;" xml:space="preserve">
<g id="_x37_2">
	<g>
		<g>
			<defs>
				<rect id="SVGID_1_" x="0" width="800" height="500"/>
			</defs>
			<use xlink:href="#SVGID_1_"  style="overflow:visible;fill:#15171a;"/>
			<clipPath id="SVGID_00000090274477184738417320000015470658939511763123_">
				<use xlink:href="#SVGID_1_"  style="overflow:visible;"/>
			</clipPath>
			<g style="clip-path:url(#SVGID_00000090274477184738417320000015470658939511763123_);">
				<g>
					<g>
						<g>
							<path style="fill:#45D1FA;" d="M68.673,672.979c-1.49,0-2.938-0.078-4.345-0.232c-12.373-1.364-21.45-8.834-26.977-22.203
								c-9.696-23.452-8.424-65.928,3.677-122.837c11.345-53.354,31.87-118.382,59.354-188.055
								c27.403-69.467,60.5-140.459,95.713-205.302c37.359-68.794,76.369-129.125,112.811-174.47
								c77.321-96.208,99.005-184.458,61.058-248.492c-33.01-55.703-110.177-84.982-187.655-71.19
								C98.391-344.87,38.999-285.668,23.433-201.439l-0.737-0.137c8.281-44.81,28.085-81.889,58.862-110.205
								c27.2-25.025,61.993-41.886,100.618-48.76c36.848-6.558,75.571-3.456,109.035,8.736
								c35.188,12.818,62.643,34.538,79.397,62.811c17.716,29.896,22.623,65.144,14.585,104.767
								c-9.073,44.72-34.543,93.362-75.703,144.577c-72.162,89.792-150.073,231.69-208.411,379.578
								c-27.469,69.635-47.981,134.621-59.317,187.936c-12.07,56.76-13.355,99.083-3.718,122.394
								C43.458,663.354,52.329,670.669,64.41,672c33.133,3.654,89.397-36.236,167.227-118.55
								c89.184-94.322,205.231-243.155,344.917-442.364c177.642-253.334,284.917-367.183,327.981-348.036
								c51.18,22.757,4.53,226.352-40.583,423.244c-39.653,173.058-77.106,336.519-41.297,352.335
								c24.818,10.97,83.194-50.446,178.447-187.734l0.616,0.428c-95.491,137.63-154.16,199.122-179.366,187.993
								c-36.376-16.066,1.145-179.82,40.868-353.188c22.205-96.909,45.165-197.117,56.163-275.705
								c12.406-88.654,7.449-136.636-15.153-146.687c-42.667-18.963-149.657,94.784-327.063,347.781
								C437.461,310.755,321.391,459.616,232.182,553.966C157.471,632.981,102.508,672.977,68.673,672.979z"/>
						</g>
					</g>
					<g>
						<g>
							<path style="fill:#81CBEB;" d="M69.927,668.51c-1.647,0-3.242-0.089-4.795-0.268c-13.132-1.511-22.744-9.535-28.568-23.851
								c-9.733-23.925-8.82-66.25,2.64-122.4C49.958,469.3,69.682,405.397,96.242,337.193
								c26.498-68.045,58.654-137.437,92.992-200.674c36.432-67.095,74.661-125.854,110.555-169.925
								c75.631-92.858,96.45-179.168,58.621-243.03c-34.943-58.989-116.21-89.706-197.625-74.701
								C79.311-336.119,22.372-278.882,8.473-198.026l-0.739-0.127c7.418-43.154,26.085-78.875,55.481-106.171
								c26.011-24.152,59.703-40.595,97.434-47.549c38.308-7.061,78.971-3.847,114.501,9.047
								c37.338,13.551,66.352,36.377,83.905,66.009c17.696,29.874,22.769,64.686,15.079,103.47
								c-8.67,43.723-33.487,90.965-73.764,140.415c-71.019,87.199-147.068,225.665-203.43,370.398
								C70.396,405.631,50.685,469.49,39.939,522.142c-11.431,56.005-12.357,98.181-2.68,121.967
								c5.712,14.042,15.119,21.911,27.959,23.389c33.67,3.858,89.891-34.83,167.108-115.036
								c88.459-91.883,203.042-237.085,340.567-431.573c175.003-247.489,281.428-358.395,325.373-339.042
								c52.362,23.058,8.655,224.045-33.611,418.414c-37.146,170.815-72.23,332.157-35.59,348.179
								c25.335,11.076,83.246-48.731,177.047-182.85l0.615,0.43C912.69,500.476,854.471,560.376,828.766,549.127
								c-37.204-16.268-2.056-177.901,35.156-349.025c20.804-95.665,42.314-194.587,52.069-272.242
								c11.004-87.603,5.107-135.14-18.027-145.327c-43.556-19.18-149.692,91.637-324.458,338.788
								c-137.547,194.518-252.154,339.75-340.64,431.661C159.021,629.685,104.251,668.507,69.927,668.51z"/>
						</g>
					</g>
					<g>
						<g>
							<path style="fill:#60D7FB;" d="M71.171,664.104c-1.818,0-3.579-0.103-5.289-0.309c-13.941-1.675-24.12-10.299-30.253-25.634
								C16.388,590.057,37.477,476.576,92.04,334.6C146.487,192.925,220.748,57.781,290.685-26.91
								c73.975-89.58,93.964-173.962,56.284-237.603c-36.382-61.448-123.79-94.4-207.843-78.358
								C59.016-327.579,5.906-273.647-6.587-194.903l-0.74-0.118c6.588-41.531,24.137-75.928,52.158-102.233
								c24.826-23.306,57.384-39.335,94.156-46.354c84.349-16.099,172.092,17.002,208.628,78.712
								c17.661,29.83,22.885,64.197,15.526,102.147c-8.286,42.731-32.469,88.595-71.877,136.316
								C221.374,58.2,147.16,193.266,92.74,334.869c-25.637,66.709-44.563,129.454-54.732,181.452
								c-10.807,55.258-11.389,97.293-1.682,121.562c6.024,15.061,15.999,23.528,29.647,25.168
								c34.207,4.106,90.408-33.421,167.039-111.549c87.766-89.48,200.932-231.115,336.354-420.972
								c172.424-241.727,278.041-349.729,322.874-330.184c53.576,23.358,12.799,221.823-26.637,413.753
								c-34.65,168.646-67.38,327.94-29.885,344.166c25.846,11.182,83.326-47.046,175.707-178.041l0.613,0.432
								c-92.616,131.33-150.397,189.65-176.618,178.298c-38.055-16.469-5.266-176.052,29.448-345.005
								c19.409-94.462,39.479-192.141,47.991-268.895c9.603-86.587,2.761-133.696-20.92-144.02
								c-44.465-19.38-149.778,88.538-321.963,329.932C434.53,320.854,321.339,462.52,233.546,552.027
								C160.554,626.444,105.979,664.102,71.171,664.104z"/>
						</g>
					</g>
					<g>
						<g>
							<path style="fill:#8BBED4;" d="M72.4,659.763c-2.008,0-3.947-0.117-5.831-0.354c-14.8-1.855-25.579-11.129-32.035-27.561
								c-19.28-49.068,0.623-161.209,53.24-299.976C140.318,193.297,212.775,61.516,281.597-20.643
								c72.353-86.371,91.548-168.838,54.049-232.21c-37.847-63.961-131.695-99.283-218.292-82.167
								C39.903-319.711-10.8-267.606-21.756-192.066l-0.742-0.107c5.794-39.951,22.247-73.059,48.901-98.404
								c23.65-22.488,55.05-38.111,90.805-45.178c41.106-8.124,85.74-4.647,125.683,9.79c41.313,14.933,74.484,40.763,93.4,72.73
								c17.611,29.763,22.97,63.675,15.926,100.794c-7.921,41.747-31.488,86.252-70.045,132.279
								c-68.771,82.098-141.181,213.799-193.697,352.3C35.922,470.736,16.019,582.675,35.232,631.574
								c6.349,16.157,16.923,25.271,31.43,27.091c34.758,4.363,90.946-32.01,167.019-108.088
								c87.105-87.113,198.902-225.246,332.284-410.563C735.864-96.039,840.7-201.185,886.444-181.451
								c54.827,23.655,16.967,219.691-19.647,409.272c-32.166,166.552-62.548,323.866-24.176,340.294
								c26.375,11.298,83.433-45.392,174.417-173.307l0.611,0.436c-91.221,128.243-148.568,185.018-175.324,173.562
								c-38.928-16.667-8.489-174.27,23.735-341.127c18.02-93.304,36.653-189.784,43.924-265.67
								c8.202-85.611,0.405-132.311-23.837-142.77c-45.39-19.583-149.915,85.495-319.573,321.214
								C433.169,325.802,321.346,463.966,234.211,551.107C162.07,623.254,107.686,659.758,72.4,659.763z"/>
						</g>
					</g>
					<g>
						<g>
							<path style="fill:#B1C5E8;" d="M73.615,655.487c-2.213,0-4.355-0.136-6.427-0.407c-15.715-2.057-27.127-12.031-33.92-29.647
								c-19.296-50.039-0.542-160.853,50.167-296.426C134.114,193.511,204.799,65.064,272.517-14.588
								c70.767-83.235,89.205-163.802,51.918-226.859c-39.335-66.522-139.9-104.358-228.944-86.137
								C20.763-312.293-27.542-261.971-37.039-189.52l-0.744-0.098c9.541-72.788,58.062-123.343,133.123-138.702
								c42.422-8.683,89.076-5.046,131.364,10.237c43.701,15.792,78.638,42.872,98.376,76.253
								c17.546,29.673,23.023,63.123,16.278,99.418c-7.576,40.768-30.546,83.938-68.271,128.309
								C205.424,65.487,134.788,193.851,84.137,329.271c-50.646,135.405-69.4,246.019-50.169,295.893
								c6.686,17.34,17.896,27.155,33.318,29.174c35.303,4.611,91.504-30.59,167.048-104.649
								c86.478-84.78,196.952-219.474,328.351-400.338C730.12-81.115,834.205-183.455,880.884-163.532
								c56.114,23.951,21.161,217.645-12.641,404.961c-29.69,164.529-57.733,319.933-18.46,336.561
								c26.908,11.398,83.566-43.767,173.19-168.648l0.609,0.438c-89.857,125.207-146.813,180.45-174.091,168.902
								c-39.825-16.862-11.73-172.553,18.014-337.385c16.636-92.187,33.838-187.511,39.865-262.564
								c6.8-84.671-1.96-130.981-26.781-141.575C834.281-182.602,730.49-80.346,563.292,149.79
								C431.867,330.689,321.366,465.414,234.859,550.223C163.556,620.126,109.372,655.486,73.615,655.487z"/>
						</g>
					</g>
					<g>
						<g>
							<path style="fill:#649AF9;" d="M74.831,651.275c-2.442,0-4.802-0.155-7.082-0.467c-16.689-2.279-28.772-13.016-35.915-31.909
								c-19.285-51.014-1.643-160.511,47.194-292.903C127.879,193.562,196.818,68.427,263.44-8.74
								c69.214-80.171,86.93-158.852,49.886-221.549c-41.538-70.301-146.859-109.953-239.779-90.275
								C1.588-305.324-44.335-256.737-52.448-187.263l-0.745-0.087c4.311-36.919,18.653-67.561,42.628-91.077
								c21.342-20.934,50.374-35.758,83.957-42.871c43.676-9.252,92.358-5.434,137.083,10.745
								c46.174,16.705,82.93,45.074,103.497,79.882c17.467,29.563,23.046,62.54,16.584,98.016
								c-7.25,39.797-29.64,81.653-66.547,124.404C197.442,68.853,128.553,193.902,79.731,326.256
								c-48.776,132.228-66.42,241.528-47.196,292.378c7.038,18.617,18.92,29.192,35.315,31.432
								c35.86,4.896,92.088-29.163,167.128-101.232c85.882-82.481,195.078-213.797,324.557-390.299
								C724.557-66.418,827.921-165.994,875.548-145.897c25.746,10.867,35.628,57.044,30.208,141.169
								c-4.786,74.288-20.563,168.519-35.821,259.647C842.712,417.502,817,571.068,857.2,587.894
								c27.454,11.489,83.722-42.171,172.012-164.061l0.607,0.439C941.298,546.483,884.74,600.235,856.91,588.585
								c-40.748-17.055-14.988-170.905,12.284-333.788c15.255-91.111,31.029-185.323,35.813-259.573
								c5.398-83.767-4.335-129.702-29.751-140.43c-47.25-19.945-150.329,79.551-315.115,304.184
								C430.637,335.515,321.411,466.863,235.498,549.374C165.034,617.047,111.048,651.274,74.831,651.275z"/>
						</g>
					</g>
					<g>
						<g>
							<path style="fill:#7B9FFB;" d="M76.04,647.127c-2.693,0-5.293-0.179-7.801-0.536c-17.724-2.526-30.516-14.085-38.021-34.355
								c-19.248-51.985-2.675-160.173,44.332-289.4C121.616,193.448,188.84,71.597,254.374-3.116
								c67.69-77.172,84.719-153.975,47.952-216.26c-43.1-73.013-155.597-115.442-250.77-94.585
								C10.91-305.053-58.667-276.491-67.979-185.29l-0.746-0.076c3.622-35.471,16.952-64.94,39.622-87.586
								c20.217-20.197,48.053-34.63,80.497-41.741c44.203-9.688,96.261-5.561,142.824,11.323
								c48.733,17.67,87.356,47.365,108.753,83.613c17.371,29.427,23.037,61.922,16.841,96.581
								c-6.942,38.831-28.769,79.391-64.874,120.554C189.462,72.025,122.29,193.788,75.255,323.092
								C28.307,452.157,11.734,560.15,30.922,611.976c7.402,19.992,19.993,31.389,37.423,33.872
								c36.415,5.19,92.69-27.726,167.257-97.833c85.318-80.216,193.286-208.215,320.904-380.441
								C719.172-51.946,821.864-148.8,870.435-128.531c26.357,10.997,37.22,56.814,33.214,140.069
								c-3.539,73.519-17.893,166.682-31.773,256.777c-24.76,160.708-48.146,312.503-6.994,329.522
								c28.007,11.576,83.904-40.604,170.888-159.543l0.605,0.443C949.158,557.997,892.96,610.26,864.596,598.53
								c-41.697-17.245-18.267-169.322,6.539-330.33c13.878-90.076,28.229-183.219,31.766-256.699
								c3.989-82.901-6.725-128.48-32.753-139.341C821.927-147.96,719.537-51.181,557.11,168.02
								C429.465,340.282,321.467,468.315,236.116,548.56C166.488,614.024,112.707,647.126,76.04,647.127z"/>
						</g>
					</g>
					<g>
						<g>
							<path style="fill:#5691F9;" d="M77.254,643.043c-2.969,0-5.832-0.205-8.589-0.614c-18.826-2.8-32.367-15.25-40.248-37.007
								c-19.18-52.955-3.636-159.835,41.581-285.904C115.316,193.166,180.851,74.577,245.304,2.293
								c84.847-95.156,71.914-167.267,46.124-211.004c-44.671-75.757-164.602-121.127-261.891-99.066
								c-67.341,15.268-107.537,59.37-113.181,124.181l-0.747-0.065c2.967-34.074,15.321-62.41,36.718-84.219
								c19.392-19.765,45.313-33.435,77.045-40.629c45.28-10.266,99.434-5.901,148.571,11.979
								c51.373,18.692,91.906,49.745,114.132,87.439c17.258,29.268,22.994,61.27,17.046,95.117
								c-6.654,37.869-27.937,77.155-63.257,116.767c-64.392,72.216-129.873,190.712-175.16,316.979
								C25.544,445.681,10,552.37,29.123,605.166c7.779,21.478,21.12,33.765,39.652,36.521
								c36.979,5.493,93.314-26.279,167.436-94.452c84.787-77.982,191.572-202.725,317.389-370.761
								C713.956-37.692,815.996-131.864,865.54-111.438c26.983,11.125,38.841,56.599,36.251,139.019
								c-2.287,72.783-15.218,164.919-27.724,254.022c-22.302,158.904-43.366,308.996-1.235,326.206
								c28.554,11.661,84.107-39.063,169.812-155.099l0.604,0.445c-85.936,116.348-141.77,167.154-170.699,155.348
								c-42.671-17.431-21.566-167.803,0.777-327.005c12.502-89.083,25.431-181.199,27.717-253.941
								c2.578-82.071-9.128-127.31-35.788-138.302C816.069-131.026,714.32-36.926,554.2,176.923
								C428.356,344.996,321.54,469.773,236.719,547.786C167.928,611.057,114.357,643.042,77.254,643.043z"/>
						</g>
					</g>
					<g>
						<g>
							<path style="fill:#6A9EFA;" d="M78.475,639.019c-3.275,0-6.422-0.234-9.455-0.705c-20-3.102-34.333-16.52-42.601-39.881
								c-19.081-53.916-4.522-159.484,38.944-282.395C108.975,192.718,172.846,77.377,236.22,7.5
								c82.98-91.49,69.944-162.406,44.396-205.787C234.366-276.82,106.737-325.293,7.49-302.022
								c-64.504,15.127-102.482,57.682-106.937,119.826l-0.748-0.054c4.48-62.499,42.662-105.294,107.513-120.502
								c46.274-10.85,102.517-6.214,154.312,12.72c54.095,19.776,96.581,52.223,119.632,91.365
								c17.13,29.087,22.919,60.588,17.206,93.628c-6.384,36.915-27.141,74.948-61.692,113.044
								C173.465,77.811,109.65,193.058,66.071,316.288C22.66,439.042,8.102,544.423,27.127,598.183
								c8.168,23.081,22.302,36.334,42.008,39.39c37.558,5.832,93.964-24.82,167.667-91.082
								c84.289-75.78,189.939-197.325,314.014-361.257C708.913-23.648,810.325-115.192,860.861-94.608
								c27.629,11.252,40.492,56.399,39.324,138.021c-1.032,72.078-12.542,163.231-23.674,251.383
								c-19.848,157.176-38.595,305.635,4.544,323.033c29.122,11.742,84.334-37.552,168.786-150.72l0.602,0.449
								c-84.683,113.476-140.178,162.862-169.668,150.966c-43.675-17.614-24.893-166.352-5.008-323.822
								c11.129-88.132,22.637-179.264,23.668-251.3c1.163-81.277-11.547-126.193-38.857-137.315
								c-50.161-20.435-151.298,71.023-309.164,279.599C427.31,349.656,321.628,471.235,237.303,547.048
								C169.354,608.137,115.999,639.015,78.475,639.019z"/>
						</g>
					</g>
					<g>
						<g>
							<path style="fill:#A9B2D3;" d="M79.711,635.057c-3.607,0-7.072-0.269-10.404-0.809c-21.25-3.438-36.419-17.904-45.085-42.999
								c-18.946-54.864-5.327-159.112,36.433-278.863c41.947-120.29,104.184-232.399,166.483-299.892
								c81.147-87.908,68.045-157.604,42.764-200.591c-23.781-40.437-68.122-74.195-124.855-95.055
								c-54.398-20.001-112.57-24.933-159.602-13.53c-61.693,14.959-97.505,56.014-100.838,115.604l-0.749-0.042
								c3.353-59.948,39.368-101.247,101.411-116.29c47.172-11.438,105.503-6.498,160.038,13.555
								c56.896,20.92,101.374,54.793,125.243,95.379c16.985,28.882,22.811,59.87,17.315,92.104
								c-6.132,35.964-26.378,72.764-60.174,109.376c-62.232,67.421-124.411,179.433-166.326,299.63
								C19.658,432.229,6.038,536.294,24.931,591.005c8.568,24.813,23.539,39.113,44.496,42.503
								c38.13,6.176,94.635-23.345,167.948-87.723c83.824-73.607,188.385-192.01,310.778-351.922
								C704.047-9.816,804.88-98.748,856.393-78.032c28.295,11.377,42.176,56.215,42.435,137.075
								c0.229,71.406-9.861,161.619-19.619,248.862c-17.395,155.517-33.824,302.409,10.349,319.991
								c29.691,11.821,84.581-36.072,167.806-146.413l0.6,0.451c-83.457,110.647-138.635,158.618-168.683,146.659
								c-44.705-17.794-28.244-164.963-10.816-320.773c9.755-87.222,19.843-177.413,19.614-248.775
								c-0.258-80.52-13.984-125.131-41.964-136.382C804.949-97.907,704.407-9.054,548.749,194.319
								C426.325,354.27,321.73,472.71,237.87,546.349C170.764,605.276,117.641,635.054,79.711,635.057z"/>
						</g>
					</g>
					<g>
						<g>
							<path style="fill:#63CBE8;" d="M908.233,640.56c-3.646,0-7.031-0.616-10.165-1.847
								c-45.765-17.969-31.625-163.638-16.655-317.86c8.383-86.353,17.05-175.647,15.556-246.369
								c-1.688-79.8-16.443-124.123-45.112-135.501C799.683-81.72,699.705,4.572,546.209,202.809
								c-120.806,156.02-224.362,271.379-307.794,342.877c-73.128,62.669-129.957,91.109-168.895,84.542
								c-22.582-3.809-38.633-19.414-47.706-46.38c-18.773-55.795-6.043-158.707,34.054-275.29
								C96.197,191.302,156.825,82.415,218.049,17.286c79.354-84.414,66.221-152.87,41.23-195.433
								c-24.23-41.268-71.821-77.41-130.57-99.16c-57.215-21.182-117.464-26.455-165.296-14.469
								c-58.927,14.767-92.633,54.375-94.912,111.529l-0.749-0.03c1.203-30.182,10.833-55.36,28.622-74.836
								c16.221-17.759,38.714-30.339,66.857-37.391c47.976-12.023,108.385-6.74,165.739,14.494
								c58.908,21.809,106.64,58.069,130.956,99.484c16.824,28.653,22.67,59.12,17.376,90.553
								c-5.898,35.021-25.649,70.608-58.706,105.773C157.44,82.855,96.873,191.641,56.578,308.802
								C16.533,425.233,3.803,527.965,22.525,583.608c8.978,26.684,24.831,42.119,47.12,45.88
								c38.716,6.533,95.331-21.857,168.282-84.372c83.393-71.465,186.914-186.788,307.688-342.767
								C699.343,3.814,799.601-82.562,852.133-61.714c28.981,11.503,43.892,56.048,45.585,136.183
								c1.496,70.766-7.174,160.082-15.558,246.458c-14.942,153.932-29.056,299.327,16.183,317.089
								c30.259,11.894,84.847-34.621,166.867-142.17l0.596,0.455C991.974,593.113,940.203,640.56,908.233,640.56z"/>
						</g>
					</g>
					<g>
						<g>
							<path style="fill:#AAB3DC;" d="M917.766,650.802c-3.802,0-7.339-0.637-10.619-1.906
								c-46.858-18.143-35.042-162.383-22.531-315.092c7.006-85.526,14.251-173.963,11.482-244.075
								c-3.123-79.115-18.924-123.165-48.304-134.669C794.6-65.772,695.158,18.009,543.777,211.183
								C424.532,363.35,321.967,475.685,238.932,545.068c-65.399,54.646-118.016,82.245-156.695,82.248
								c-4.375,0-8.567-0.352-12.584-1.06c-24-4.223-40.981-21.061-50.47-50.047c-18.561-56.699-6.67-158.254,31.809-271.659
								C89.745,190.336,148.79,84.664,208.936,21.875c77.599-81.005,64.471-148.201,39.793-190.306
								c-25.01-42.672-74.718-80.342-136.378-103.35c-60.11-22.428-122.42-28.084-170.956-15.518
								c-56.207,14.554-87.869,52.766-89.151,107.595l-0.75-0.018c0.678-28.987,9.473-53.196,26.141-71.954
								c15.231-17.141,36.62-29.371,63.572-36.35c48.68-12.604,111.154-6.94,171.406,15.542
								c61.82,23.067,111.668,60.854,136.763,103.673c16.646,28.402,22.496,58.337,17.39,88.974
								c-5.682,34.084-24.956,68.479-57.289,102.23C82.921,154.509-19.843,454.582,19.896,575.977
								c9.396,28.702,26.18,45.37,49.887,49.542c39.305,6.917,96.049-20.346,168.668-81.026
								c82.995-69.349,185.522-181.646,304.736-333.772C694.799,17.252,794.529-66.605,848.067-45.639
								c29.688,11.625,45.643,55.894,48.78,135.338c2.77,70.157-4.478,158.618-11.485,244.166
								c-12.486,152.422-24.28,296.391,22.055,314.331c30.833,11.932,85.13-33.194,165.974-137.989l0.594,0.457
								C1001.438,604.705,950.108,650.802,917.766,650.802z"/>
						</g>
					</g>
					<g>
						<g>
							<path style="fill:#55C7E6;" d="M927.6,661.099c-3.961,0-7.652-0.656-11.085-1.966
								c-47.979-18.31-38.489-161.185-28.442-312.447c5.628-84.74,11.447-172.366,7.397-241.9
								c-4.57-78.467-21.43-122.263-51.543-133.892C789.711-50.036,690.774,31.25,541.466,219.425
								C423.718,367.824,322.097,477.19,239.424,544.485c-64.529,52.526-116.865,79.047-155.882,79.049
								c-4.815,0-9.424-0.403-13.832-1.212c-25.512-4.681-43.472-22.857-53.381-54.023C-1.976,510.728,9.13,410.56,46.037,300.348
								c17.727-52.938,40.611-105.403,66.177-151.725c27.522-49.867,56.995-91.037,87.597-122.367
								c75.878-77.678,62.792-143.588,38.453-185.202c-25.77-44.059-77.627-83.283-142.275-107.615
								C33.833-289.954-32.18-296.189-80.594-283.24c-37.887,10.133-83.142,36.367-83.584,103.802l-0.75-0.005
								c0.183-27.844,8.18-51.123,23.771-69.193c14.277-16.547,34.588-28.434,60.369-35.329
								c48.56-12.989,114.744-6.745,177.04,16.702c64.807,24.392,116.804,63.733,142.659,107.938
								c24.471,41.839,37.645,108.088-38.563,186.104c-58.989,60.39-116.41,162.747-153.6,273.806
								C9.89,410.652-1.215,510.647,17.043,568.072c9.819,30.881,27.584,48.886,52.802,53.512
								c39.897,7.323,96.791-18.816,169.106-77.681c82.63-67.261,184.213-176.588,301.927-324.944
								C690.415,30.496,789.632-50.88,844.196-29.806c30.417,11.746,47.434,55.756,52.022,134.547
								c4.053,69.581-1.77,157.23-7.398,241.993c-10.027,150.979-19.499,293.585,27.962,311.697
								c31.434,11.994,85.431-31.803,165.113-133.877l0.592,0.461C1011.207,616.327,960.31,661.099,927.6,661.099z"/>
						</g>
					</g>
					<g>
						<g>
							<path style="fill:#A0AACF;" d="M937.751,671.466c-4.125,0-7.979-0.677-11.565-2.025
								c-49.133-18.474-41.975-160.051-34.396-309.94c4.246-83.995,8.638-170.849,3.297-239.838
								c-6.026-77.855-23.962-121.414-54.83-133.165c-55.254-21.033-153.708,57.814-300.985,241.055
								C422.96,372.264,322.232,478.715,239.887,543.947c-72.22,57.212-129.485,82.274-170.207,74.482
								c-27.123-5.188-46.115-24.815-56.449-58.336c-18.003-58.4-7.628-157.144,27.754-264.141
								c17.049-51.558,39.191-102.499,64.034-147.317c26.743-48.246,55.553-88.011,85.63-118.188
								c74.2-74.44,61.191-139.05,37.213-180.143c-26.505-45.423-80.538-86.229-148.244-111.956
								c-65.153-24.756-133.253-31.472-182.167-17.967c-36.066,9.959-78.915,35.42-78.229,100.163l-0.75,0.008
								c-0.284-26.755,6.956-49.15,21.518-66.562c13.363-15.979,32.629-27.53,57.261-34.331
								c49.062-13.546,117.335-6.822,182.633,17.989c67.864,25.786,122.036,66.71,148.626,112.279
								c24.111,41.32,37.206,106.272-37.33,181.05C133.285,89.064,77.403,188.209,41.696,296.189
								C6.362,403.043-4.012,501.616,13.947,559.873c10.246,33.234,29.044,52.689,55.873,57.82
								c40.5,7.745,97.56-17.264,169.602-74.334c82.301-65.198,182.989-171.609,299.265-316.278
								C686.196,43.554,784.93-35.369,840.522-14.204c31.168,11.866,49.26,55.635,55.312,133.808
								c5.344,69.037,0.952,155.915-3.296,239.933c-7.564,149.608-14.708,290.92,33.911,309.201
								c32.001,12.036,85.744-30.434,164.294-129.826l0.588,0.465C1021.29,628.005,970.818,671.466,937.751,671.466z"/>
						</g>
					</g>
					<g>
						<g>
							<path style="fill:#BBD3FE;" d="M948.228,681.905c-4.293,0-8.31-0.695-12.059-2.084
								c-50.321-18.635-45.504-158.985-40.403-307.576c2.859-83.291,5.815-169.418-0.826-237.893
								c-7.496-77.279-26.524-120.617-58.172-132.491C780.47-19.256,682.48,57.184,537.195,235.551
								C422.257,376.66,322.374,480.252,240.319,543.448c-62.743,48.323-114.453,72.706-154.062,72.709
								c-5.829,0-11.392-0.528-16.695-1.585c-28.839-5.751-48.916-26.952-59.672-63.014
								c-17.651-59.178-7.946-156.452,25.962-260.208C52.247,241.182,73.669,191.77,97.8,148.456
								c25.977-46.626,54.131-84.988,83.681-114.022c72.547-71.28,59.649-134.566,36.054-175.105
								c-27.217-46.762-83.456-89.176-154.296-116.367c-68.228-26.188-138.403-33.433-187.719-19.38
								c-34.3,9.774-74.819,34.478-73.07,96.654l-0.75,0.021c-1.395-49.596,24.06-83.275,73.614-97.396
								c49.465-14.097,119.817-6.844,188.193,19.401c70.997,27.251,127.374,69.783,154.675,116.689
								c23.729,40.769,36.713,104.399-36.177,176.018C124.364,91.605,71.352,185.138,36.564,291.583
								C2.702,395.2-7.002,492.308,10.608,551.345c10.671,35.774,30.555,56.8,59.101,62.492
								c41.102,8.188,98.354-15.685,170.152-70.982c82.009-63.162,181.851-166.713,296.753-307.777
								C682.129,56.428,780.396-20.088,837.031,1.159c31.942,11.984,51.129,55.528,58.655,133.12
								c6.648,68.524,3.691,154.676,0.83,237.991c-5.091,148.313-9.9,288.401,39.914,306.848
								c32.581,12.066,86.07-29.093,163.509-125.84l0.586,0.469C1031.701,639.731,981.647,681.905,948.228,681.905z"/>
						</g>
					</g>
					<g>
						<g>
							<path style="fill:#85C3E1;" d="M959.027,692.416c-4.466,0-8.65-0.716-12.565-2.143
								c-51.542-18.791-49.072-157.978-46.457-305.34c1.467-82.628,2.983-168.069-4.972-236.063
								c-8.979-76.74-29.117-119.874-61.568-131.868C776.125-4.194,678.568,69.878,535.23,243.44
								C421.604,381.025,322.516,481.81,240.715,542.993c-61.821,46.241-113.177,69.564-153.033,69.566
								c-6.41,0-12.519-0.603-18.33-1.812c-30.669-6.374-51.886-29.28-63.061-68.08c-17.25-59.894-8.155-155.643,24.33-256.131
								C64.042,183.152,115.671,92.645,172.27,38.224c70.935-68.202,58.184-130.146,34.997-170.102
								c-27.897-48.07-86.365-92.117-160.411-120.846c-71.376-27.693-143.612-35.518-193.236-20.93
								c-46.746,13.741-70.304,46.002-68.127,93.294l-0.749,0.034c-2.194-47.676,21.55-80.197,68.665-94.047
								c49.776-14.632,122.195-6.8,193.718,20.951c74.203,28.79,132.808,72.954,160.789,121.169
								c23.322,40.187,36.16,102.479-35.126,171.019C116.277,93.103,64.719,183.497,31.334,286.768
								C-1.105,387.119-10.198,482.705,7.012,542.46c11.092,38.512,32.117,61.24,62.492,67.555
								c41.727,8.675,99.178-14.079,170.762-67.622c81.752-61.148,180.798-161.891,294.386-299.43
								C678.222,69.121,776.052-5.014,833.726,16.3c32.74,12.101,53.038,55.437,62.053,132.484
								c7.961,68.044,6.443,153.511,4.977,236.164c-2.61,147.086-5.076,286.014,45.964,304.621
								c33.176,12.095,86.411-27.783,162.758-121.915l0.582,0.473C1042.433,651.507,992.788,692.416,959.027,692.416z"/>
						</g>
					</g>
					<g>
						<g>
							<path style="fill:#6299F9;" d="M970.156,703.011c-4.641,0-8.999-0.734-13.084-2.199
								c-52.798-18.943-52.687-157.038-52.567-303.241c0.066-82.008,0.135-166.807-9.146-234.351
								c-10.476-76.237-31.744-119.185-65.023-131.298C771.935,10.668,674.807,82.4,533.381,251.216
								c-112.377,134.142-210.723,232.17-292.306,291.363c-60.874,44.168-111.847,66.438-151.912,66.441
								c-7.048,0-13.75-0.689-20.119-2.068c-32.619-7.066-55.032-31.818-66.615-73.568c-16.794-60.533-8.247-154.693,22.866-251.877
								C57.368,181.327,107.567,93.964,163.024,41.82c54.896-51.614,66.663-108.716,34.027-165.133
								c-63.171-109.2-265.791-178.16-365.304-147.992c-44.402,13.459-66.327,44.608-63.405,90.082l-0.748,0.048
								c-2.948-45.861,19.161-77.276,63.935-90.848c49.997-15.154,124.468-6.693,199.21,22.632
								c36.246,14.221,70.324,32.692,98.553,53.417c30.671,22.517,53.686,46.837,68.407,72.285
								c22.894,39.576,35.551,100.51-34.162,166.054C49.234,149.842-33.207,402.132,3.153,533.184
								c11.502,41.46,33.725,66.032,66.051,73.036c42.354,9.173,100.028-12.44,171.431-64.248
								c81.533-59.156,179.834-157.143,292.172-291.237C674.461,81.646,771.867,9.844,830.593,31.216
								c33.564,12.217,54.993,55.362,65.51,131.901c9.287,67.596,9.219,152.421,9.152,234.453
								c-0.118,145.932-0.231,283.771,52.071,302.535c33.749,12.101,86.758-26.501,162.028-118.048l0.58,0.477
								C1053.484,663.354,1004.249,703.011,970.156,703.011z"/>
						</g>
					</g>
					<g>
						<g>
							<path style="fill:#73BADD;" d="M981.628,713.688c-4.82,0-9.355-0.753-13.615-2.257
								c-54.09-19.091-56.35-156.157-58.741-301.271c-1.342-81.427-2.729-165.626-13.351-232.753
								c-11.987-75.771-34.407-118.55-68.54-130.781c-59.446-21.305-156.186,48.128-295.739,212.26
								c-111.194,130.777-208.85,226.102-290.255,283.324c-71.434,50.215-129.56,70.73-172.759,60.975
								c-17.672-3.99-32.711-13.139-44.699-27.189C12.646,562.773,4.021,545.17-1.708,523.678
								c-8.33-31.249-10.47-69.56-6.362-113.868c3.901-42.08,13.564-88.263,27.945-133.555
								C50.653,179.318,99.448,95.11,153.748,45.224c53.671-49.309,65.131-104.706,33.14-160.204
								C122.695-226.341-89.301-300.883-190.107-269.395c-42.155,13.168-62.523,43.254-58.9,87.004l-0.747,0.062
								c-3.656-44.142,16.893-74.497,59.423-87.782c25.071-7.833,57.704-9.507,94.371-4.842
								c35.127,4.468,73.271,14.601,110.308,29.303c37.688,14.961,73.113,34.237,102.444,55.747
								c31.922,23.409,55.724,48.49,70.745,74.549c32.187,55.838,20.679,111.556-33.282,161.13
								C100.049,95.577,51.329,179.666,20.589,276.482C-9.166,370.195-17.23,462.533-0.983,523.484
								c11.729,44.004,35.857,71.311,69.776,78.97c42.989,9.705,100.909-10.77,172.163-60.856
								C322.308,484.411,419.917,389.13,531.07,258.4C670.849,94.005,767.852,24.495,827.634,45.92
								c34.414,12.332,56.993,55.303,69.028,131.37c10.629,67.179,12.017,151.405,13.359,232.858
								c2.388,144.846,4.643,281.658,58.241,300.576c34.344,12.121,87.115-25.248,161.332-114.247l0.576,0.481
								C1064.876,675.258,1016.042,713.688,981.628,713.688z"/>
						</g>
					</g>
					<g>
						<g>
							<path style="fill:#8ABED3;" d="M993.441,724.463c-5.005,0-9.72-0.771-14.161-2.313
								c-55.42-19.236-60.063-155.344-64.98-299.443c-2.76-80.888-5.613-164.529-17.589-231.271
								c-13.518-75.341-37.108-117.968-72.121-130.316c-60.511-21.34-156.86,45.828-294.575,205.329
								C419.938,393.94,322.919,486.611,241.653,541.884c-71.318,48.507-129.711,67.872-173.553,57.555
								c-36.391-8.563-62.057-38.274-74.225-85.922c-8.036-31.469-10.146-69.397-6.273-112.732
								c3.689-41.264,12.939-86.221,26.751-130.009C43.895,177.122,91.306,96.081,144.431,48.43
								c52.471-47.064,63.655-100.768,32.343-155.304C147.49-157.878,80.537-208.2-2.325-241.487
								c-80.025-32.148-160.349-42.269-209.627-26.415c-40.012,12.873-58.898,41.943-54.614,84.067l-0.746,0.076
								c-4.324-42.52,14.74-71.863,55.131-84.858c25.072-8.066,58.298-9.655,96.085-4.594
								c36.129,4.839,75.567,15.567,114.051,31.027c39.156,15.729,75.947,35.832,106.394,58.136
								c33.19,24.313,57.777,50.152,73.076,76.798c31.51,54.881,20.274,108.906-32.492,156.236
								C91.904,96.552,44.57,177.472,15.069,271.001C-13.426,361.339-21.078,451.929-5.398,513.33
								c12.093,47.36,37.568,76.884,73.669,85.379c43.63,10.264,101.823-9.061,172.96-57.445
								c81.212-55.235,178.182-147.862,288.215-275.307C667.388,106.194,764.011,38.956,824.839,60.412
								c35.29,12.446,59.041,55.261,72.61,130.891c11.984,66.795,14.839,150.464,17.601,231.378
								c4.907,143.835,9.543,279.692,64.477,298.761c34.92,12.115,87.479-24.023,160.662-110.502l0.572,0.484
								C1076.603,687.24,1028.164,724.463,993.441,724.463z"/>
						</g>
					</g>
					<g>
						<g>
							<path style="fill:#ACB5D5;" d="M1005.612,735.328c-5.191,0-10.093-0.791-14.718-2.369
								c-56.787-19.379-63.833-154.595-71.294-297.75c-4.19-80.39-8.521-163.516-21.867-229.905
								C882.667,130.356,857.882,87.864,821.961,75.4c-29.537-10.251-66.181-0.849-112.018,28.743
								c-49.753,32.118-110.798,89.236-181.44,169.766C419.477,398.197,323.039,488.263,241.868,541.604
								c-71.237,46.813-129.918,65.021-174.417,54.108c-38.714-9.492-65.783-41.596-78.28-92.839
								c-7.712-31.626-9.761-69.118-6.088-111.434c3.507-40.405,12.375-84.102,25.644-126.366
								C37.086,174.748,83.133,96.884,135.06,51.447c51.298-44.883,62.235-96.906,31.631-150.444
								C136.893-151.126,67.576-203.199-18.73-238.294c-83.402-33.913-165.809-44.849-215.063-28.537
								c-37.974,12.575-55.452,40.679-50.545,81.271l-0.745,0.09c-4.955-40.991,12.7-69.372,51.054-82.073
								c49.415-16.363,132.021-5.422,215.581,28.554c86.457,35.156,155.911,87.35,185.79,139.62
								c14.624,25.584,19.94,50.93,15.799,75.335c-4.549,26.812-20.56,52.397-47.587,76.045
								C29.261,145.02-42.885,368.256-10.1,502.695c12.426,50.954,39.305,82.867,77.73,92.288
								c44.287,10.86,102.771-7.312,173.827-54.007c81.114-53.304,177.501-143.324,286.482-267.562
								C664.074,118.223,760.325,53.22,822.207,74.691c36.193,12.559,61.139,55.234,76.262,130.464
								c13.356,66.443,17.69,149.598,21.881,230.015c7.447,142.894,14.481,277.863,70.787,297.078
								c35.507,12.113,87.844-22.822,160.007-106.813l0.568,0.488C1088.672,699.299,1040.632,735.328,1005.612,735.328z"/>
						</g>
					</g>
					<g>
						<g>
							<path style="fill:#97C0D5;" d="M1018.144,746.296c-5.381,0-10.473-0.809-15.287-2.424
								c-58.19-19.517-67.657-153.905-77.681-296.184c-5.631-79.934-11.454-162.588-26.189-228.658
								c-16.636-74.591-42.639-116.966-79.495-129.547c-30.051-10.261-66.887-1.343-112.611,27.254
								c-49.597,31.02-110.084,86.378-179.78,164.537C419.058,402.434,323.146,489.941,242.029,541.366
								c-71.192,45.133-130.19,62.169-175.351,50.63c-41.19-10.523-69.718-45.204-82.501-100.294
								c-14.612-62.973-7.75-147.743,18.824-232.574C30.238,172.181,74.942,97.514,125.649,54.271
								c50.145-42.764,60.862-93.12,30.991-145.624c-30.27-53.206-101.969-107.046-191.796-144.024
								c-86.851-35.752-171.341-47.557-220.5-30.809c-36.031,12.277-52.17,39.457-46.673,78.605l-0.742,0.105
								c-5.554-39.549,10.758-67.012,47.173-79.419c49.321-16.806,134.014-4.993,221.026,30.826
								c89.977,37.04,161.813,91.001,192.163,144.347c14.301,25.138,19.484,49.874,15.405,73.521
								c-4.474,25.936-20.14,50.511-46.562,73.043C22.054,143.602-46.581,355.825-15.092,491.532
								c12.715,54.8,41.055,89.288,81.956,99.737c44.956,11.483,103.753-5.518,174.764-50.536
								c81.058-51.388,176.916-138.851,284.912-259.959C660.905,130.1,756.808,67.294,819.734,88.773
								c37.124,12.672,63.288,55.227,79.985,130.094c14.747,66.124,20.572,148.807,26.205,228.767
								c10.005,142.022,19.456,276.168,77.172,295.526c36.072,12.104,88.211-21.651,159.371-103.185l0.564,0.492
								C1101.092,711.44,1053.446,746.296,1018.144,746.296z"/>
						</g>
					</g>
					<g>
						<g>
							<path style="fill:#7EB1CB;" d="M1031.039,757.37c-5.574,0-10.86-0.827-15.868-2.478
								c-59.634-19.655-71.542-153.283-84.148-294.759c-7.086-79.518-14.413-161.742-30.556-227.524
								c-18.227-74.271-45.472-116.548-83.292-129.246c-30.564-10.263-67.594-1.823-113.209,25.795
								c-49.446,29.938-109.386,83.559-178.153,159.374C418.681,406.647,323.234,491.647,242.124,541.171
								c-71.184,43.465-130.522,59.317-176.363,47.116C21.94,576.624-8.1,539.179-21.113,479.999
								c-13.854-63.006-7.192-145.757,18.279-227.034c12.685-40.479,29.132-77.828,48.884-111.01
								c20.938-35.175,44.535-63.789,70.134-85.047C165.203,16.202,175.727-32.5,146.62-83.936
								c-30.689-54.229-104.787-109.85-198.213-148.785c-90.374-37.665-176.953-50.401-225.95-33.235
								c-34.188,11.976-49.058,38.276-43.003,76.057l-0.74,0.119c-3.174-19.801-0.756-36.496,7.186-49.622
								c7.41-12.246,19.626-21.418,36.309-27.263c49.163-17.222,135.949-4.482,226.487,33.251
								c93.575,38.998,167.809,94.739,198.577,149.108c13.963,24.674,18.999,48.793,14.968,71.688
								c-4.414,25.068-19.748,48.654-45.577,70.103C5.392,149.886-47.462,356.677-20.381,479.838
								c12.949,58.888,42.803,96.139,86.334,107.725c45.634,12.146,104.777-3.677,175.78-47.031
								c81.048-49.487,176.439-134.441,283.524-252.502C657.883,141.814,753.452,81.176,817.413,102.653
								c38.084,12.786,65.489,55.237,83.781,129.778c16.156,65.837,23.486,148.09,30.575,227.636
								c12.584,141.223,24.471,274.612,83.636,294.112c36.648,12.08,88.576-20.506,158.752-99.613l0.561,0.498
								C1113.861,723.668,1066.609,757.37,1031.039,757.37z"/>
						</g>
					</g>
					<g>
						<g>
							<path style="fill:#91C1D6;" d="M1044.312,768.558c-5.773,0-11.255-0.845-16.463-2.531
								c-61.116-19.789-75.488-152.727-90.705-293.469c-8.556-79.143-17.404-160.982-34.975-226.509
								C882.328,172.059,853.815,129.862,815,117.047c-30.638-10.115-68.93-1.917-113.812,24.369
								C651.888,170.29,592.485,222.2,524.631,295.702C418.338,410.845,323.297,493.381,242.147,541.018
								c-54.511,32-102.287,48.093-142.565,48.095c-12.343,0.001-23.974-1.51-34.889-4.535
								c-46.615-12.925-78.217-53.328-91.392-116.843c-13.039-62.861-6.507-143.471,17.92-221.157
								c25.54-81.225,66.538-147.715,115.441-187.222c47.917-38.709,58.274-85.775,29.953-136.111
								C105.56-131.951,29.05-189.361-68.048-230.328c-93.967-39.646-182.643-53.369-231.422-35.811
								c-32.912,11.846-46.212,36.626-39.532,73.65l-0.738,0.133c-3.452-19.134-1.499-35.278,5.804-47.982
								c6.828-11.875,18.338-20.793,34.212-26.506c48.947-17.619,137.833-3.891,231.967,35.825
								c97.246,41.03,173.891,98.561,205.026,153.896c13.612,24.193,18.489,47.69,14.495,69.838
								c-4.365,24.209-19.381,46.827-44.63,67.225C0.441,146.131-51.133,346.243-25.964,467.582
								c13.113,63.222,44.531,103.428,90.858,116.272c46.332,12.843,105.841-1.783,176.874-43.483
								c81.086-47.6,176.069-130.09,282.313-245.179C654.996,153.38,750.239,94.875,815.235,116.335
								c39.074,12.9,67.747,55.266,87.657,129.519c17.586,65.583,26.438,147.451,34.997,226.624
								c15.19,140.493,29.536,273.196,90.19,292.835c37.207,12.049,88.938-19.384,158.145-96.1l0.557,0.502
								C1126.993,735.991,1080.133,768.558,1044.312,768.558z"/>
						</g>
					</g>
					<g>
						<g>
							<path style="fill:#95C4D7;" d="M1057.969,779.859c-5.975,0-11.659-0.863-17.071-2.584
								c-62.639-19.924-79.5-152.234-97.352-292.313c-10.044-78.81-20.43-160.304-39.45-225.608
								c-21.479-73.743-51.286-115.878-91.125-128.81c-31.14-10.11-69.633-2.379-114.419,22.971
								c-49.161,27.827-108.037,78.048-174.993,149.267C418.032,415.029,323.335,495.146,242.096,540.906
								c-71.285,40.154-131.383,53.6-178.628,39.952c-25.529-7.372-46.868-22.653-63.423-45.418
								c-15.35-21.107-26.324-48.203-32.617-80.534c-12.17-62.523-5.705-140.86,17.738-214.925
								C9.745,162.325,49.489,98.98,97.077,61.615c46.838-36.775,57.052-82.223,29.539-131.432
								c-31.368-56.103-110.3-115.312-211.143-158.385c-46.025-19.659-92.116-33.804-133.288-40.906
								c-43.368-7.481-79.204-6.664-103.63,2.363c-31.245,11.548-43.441,35.56-36.249,71.368l-0.735,0.147
								c-3.718-18.51-2.205-34.134,4.498-46.438c6.276-11.523,17.119-20.197,32.227-25.78c24.549-9.074,60.518-9.903,104.017-2.399
								c41.229,7.112,87.377,21.274,133.456,40.955c46.894,20.03,90.802,44.571,126.978,70.972
								c39.2,28.608,68.429,58.948,84.526,87.737c13.249,23.696,17.956,46.567,13.989,67.977
								c-4.329,23.362-19.039,45.033-43.719,64.411C50.069,99.478,10.415,162.694-14.12,240.208
								c-23.406,73.948-29.863,152.15-17.717,214.555c9.201,47.27,33.24,107.392,95.512,125.375
								c47.044,13.589,106.949,0.168,178.052-39.885c81.172-45.724,175.81-125.793,281.284-237.985
								c129.24-137.469,224.157-193.876,290.19-172.438c40.093,13.015,70.06,55.314,91.613,129.315
								c19.038,65.36,29.427,146.884,39.474,225.723c17.821,139.835,34.653,271.915,96.836,291.693
								c37.762,12.009,89.298-18.292,157.548-92.642l0.553,0.508C1140.49,748.41,1094.024,779.859,1057.969,779.859z"/>
						</g>
					</g>
					<g>
						<g>
							<path style="fill:#698AFC;" d="M1072.015,791.283c-6.18,0-12.071-0.88-17.691-2.636
								c-64.204-20.058-83.583-151.81-104.1-291.298c-11.549-78.519-23.491-159.709-43.984-224.823
								c-23.144-73.534-54.272-115.624-95.165-128.677c-31.629-10.097-70.329-2.828-115.021,21.603
								c-49.021,26.796-107.379,75.352-173.45,144.319c-104.838,109.431-199.259,187.173-280.64,231.065
								c-71.4,38.509-131.927,50.72-179.896,36.29c-27.105-8.153-49.681-24.773-67.1-49.396
								c-16.111-22.775-27.449-51.784-33.701-86.221c-11.251-61.975-4.788-137.907,17.73-208.326
								C2.675,159.136,41.186,98.94,87.435,63.683c46.434-35.395,56.255-78.053,29.191-126.79
								C85.002-120.055,3.631-181.07-101.041-226.323c-47.622-20.588-95.113-35.51-137.338-43.152
								c-44.541-8.061-80.892-7.465-105.124,1.724c-29.668,11.252-40.816,34.531-33.135,69.192l-0.732,0.162
								c-3.971-17.919-2.875-33.052,3.259-44.976c5.754-11.188,15.963-19.626,30.342-25.079
								c24.358-9.238,60.847-9.848,105.523-1.761c42.28,7.652,89.828,22.591,137.502,43.202
								c48.527,20.979,93.919,46.466,131.268,73.705c40.539,29.564,70.539,60.629,86.757,89.836
								c12.874,23.183,17.398,45.421,13.448,66.097c-4.303,22.522-18.717,43.266-42.839,61.654
								C-14.228,142.127-59.646,322.114-37.996,441.376c12.985,71.531,48.599,119.487,100.279,135.032
								c47.771,14.371,108.105,2.181,179.324-36.231c81.312-43.856,175.671-121.55,280.455-230.925
								c127.585-133.177,222.2-187.52,289.24-166.117c41.143,13.132,72.431,55.382,95.653,129.166
								c20.511,65.171,32.458,146.392,44.011,224.938c20.482,139.248,39.826,270.774,103.581,290.691
								c38.308,11.97,89.65-17.223,156.962-89.24l0.549,0.512C1154.359,760.935,1108.288,791.283,1072.015,791.283z"/>
						</g>
					</g>
					<g>
						<g>
							<path style="fill:#A6B0D2;" d="M1086.459,802.837c-6.388,0-12.492-0.897-18.326-2.688
								c-65.808-20.192-87.731-151.45-110.943-290.415c-13.072-78.266-26.59-159.196-48.58-224.153
								c-24.836-73.363-57.315-115.43-99.294-128.604c-32.115-10.079-71.018-3.262-115.624,20.261
								c-48.888,25.781-106.736,72.695-171.939,139.439C417.526,423.367,323.316,498.776,241.738,540.808
								c-71.558,36.87-132.541,47.824-181.256,32.563C5.247,556.066-32.274,504.281-45.17,427.554
								c-10.286-61.201-3.768-134.588,17.884-201.345C-4.453,155.808,32.84,98.763,77.723,65.58
								c45.386-33.556,55.111-74.677,28.903-122.222c-31.348-56.87-117.265-121.268-224.223-168.064
								c-103.597-45.326-200.962-62.779-248.052-44.467c-28.184,10.961-38.341,33.549-30.192,67.138l-0.729,0.177
								c-4.214-17.367-3.513-32.038,2.085-43.604c5.261-10.872,14.872-19.084,28.563-24.409c24.144-9.39,61.15-9.755,107.016-1.056
								c43.346,8.221,92.313,23.967,141.608,45.534c50.189,21.959,97.084,48.408,135.614,76.488
								c41.889,30.528,72.653,62.307,88.965,91.901c12.49,22.659,16.824,44.265,12.881,64.218
								c-4.288,21.697-18.417,41.537-41.996,58.97C-11.739,132.653-66.737,294.708-44.43,427.43
								c12.846,76.435,50.185,128.01,105.136,145.226c48.519,15.198,109.313,4.26,180.689-32.515
								c81.505-41.994,175.651-117.355,279.821-223.988c65.257-66.8,123.169-113.761,172.126-139.579
								c44.791-23.62,83.886-30.454,116.198-20.313c42.224,13.251,74.861,55.474,99.779,129.08
								c22.01,65.015,35.532,145.976,48.61,224.271c23.172,138.73,45.059,269.765,110.424,289.821
								c38.837,11.921,89.99-16.177,156.377-85.892l0.543,0.518C1168.6,773.574,1122.93,802.837,1086.459,802.837z"/>
						</g>
					</g>
					<g>
						<g>
							<path style="fill:#9ABEFE;" d="M1101.313,814.521c-6.603,0-12.922-0.914-18.976-2.739
								c-67.454-20.329-91.956-151.158-117.897-289.669c-14.618-78.055-29.734-158.767-53.246-223.6
								c-26.558-73.229-60.417-115.291-103.513-128.591c-32.595-10.06-71.698-3.687-116.222,18.943
								c-48.756,24.781-106.104,70.077-170.451,134.628C417.311,427.522,323.24,500.639,241.407,540.813
								c-71.764,35.23-133.24,44.908-182.721,28.766C0.006,550.435-39.259,494.86-51.877,413.089
								c-9.289-60.194-2.663-130.907,18.178-194.007c22.042-66.738,58.136-120.65,101.631-151.804
								c44.361-31.772,54.012-71.371,28.683-117.696C65.138-107.99-23.3-174.247-134.185-223.332
								c-107.43-47.555-207.016-66.264-253.71-47.658c-26.79,10.674-36.014,32.608-27.415,65.192l-0.725,0.191
								c-8.711-33.01,0.664-55.243,27.863-66.08c23.913-9.528,61.435-9.625,108.51-0.282c44.429,8.819,94.839,25.4,145.782,47.951
								c51.882,22.966,100.298,50.394,140.016,79.318C49.385-113.202,80.9-80.725,97.273-50.778
								c12.094,22.12,16.226,43.088,12.281,62.323c-4.283,20.88-18.14,39.836-41.186,56.342
								C-29.005,137.633-68.86,298.115-51.136,412.975c12.573,81.477,51.657,136.841,110.054,155.892
								c49.288,16.081,110.575,6.415,182.158-28.727c81.758-40.137,175.763-113.205,279.402-217.175
								c64.403-64.607,121.816-109.95,170.643-134.767c44.701-22.72,83.993-29.112,116.783-18.992
								c43.336,13.374,77.352,55.587,103.996,129.052c23.533,64.891,38.654,145.633,53.278,223.717
								c25.898,138.28,50.358,268.892,117.376,289.09c39.364,11.863,90.324-15.156,155.8-82.599l0.538,0.522
								C1183.229,786.323,1137.962,814.521,1101.313,814.521z"/>
						</g>
					</g>
					<g>
						<g>
							<path style="fill:#90DDF0;" d="M1116.585,826.345c-6.822,0-13.359-0.932-19.639-2.791
								c-69.141-20.47-96.254-150.934-124.959-289.059c-16.187-77.885-32.923-158.421-57.985-223.163
								c-28.31-73.132-63.579-115.211-107.824-128.64c-33.072-10.037-72.371-4.098-116.811,17.652
								c-48.626,23.799-105.481,67.5-168.988,129.891c-103.254,101.44-197.263,172.304-279.415,210.621
								c-72.02,33.59-134.028,41.964-184.296,24.887c-32.269-10.963-58.837-32.185-78.967-63.076
								c-18.239-27.991-30.873-64.132-36.534-104.516c-8.386-59.816-1.78-125.984,18.6-186.316
								c21.304-63.066,56.216-113.864,98.307-143.035c43.358-30.05,52.95-68.149,28.51-113.241
								C55.031-102.651-35.939-170.769-150.829-222.214c-111.339-49.855-213.173-69.875-259.435-51.004
								c-25.48,10.395-33.82,31.711-24.789,63.358l-0.722,0.206c-9.153-32.076-0.665-53.695,25.228-64.258
								c46.442-18.945,148.507,1.079,260.024,51.014C-96.918-198.895-46.958-170.472-6.046-140.7
								c44.624,32.473,76.882,65.634,93.287,95.901c11.692,21.571,15.615,41.903,11.661,60.431
								C94.616,35.71,81.023,53.805,58.499,69.415c-84.521,58.579-134.645,199.86-116.591,328.63
								c12.143,86.614,52.984,145.918,115,166.985c50.081,17.014,111.899,8.651,183.738-24.857
								c82.074-38.28,176.013-109.095,279.206-210.476c63.565-62.446,120.486-106.195,169.184-130.029
								c44.617-21.837,84.103-27.789,117.359-17.696c44.48,13.5,79.908,55.726,108.306,129.087
								c25.085,64.8,41.828,145.366,58.021,223.28c28.658,137.899,55.727,268.15,124.438,288.493
								c39.867,11.802,90.639-14.157,155.215-79.359l0.533,0.527C1198.248,799.191,1153.386,826.345,1116.585,826.345z"/>
						</g>
					</g>
					<g>
						<g>
							<path style="fill:#9DC8DA;" d="M1132.281,838.312c-7.044,0-13.811-0.949-20.32-2.843
								c-70.869-20.614-100.631-150.779-132.14-288.588c-17.778-77.753-36.161-158.153-62.8-222.837
								c-30.094-73.072-66.806-115.187-112.232-128.75c-33.536-10.013-73.031-4.5-117.393,16.384
								c-48.495,22.831-104.866,64.962-167.546,125.223c-102.895,98.926-196.916,167.571-279.45,204.029
								c-46.259,20.434-88.54,30.678-126.365,30.68c-21.315,0.001-41.209-3.25-59.62-9.763
								c-34.115-12.066-62.091-35.01-83.15-68.191c-19.049-30.015-31.944-68.345-37.289-110.849
								c-7.334-58.313-0.544-121.64,19.12-178.312C-26.292,145.09,7.456,97.371,48.125,70.13
								c42.38-28.385,51.933-65.006,28.393-108.847C38.795-108.973-74.286-179.122-167.535-221.345
								c-115.33-52.221-219.443-73.613-265.244-54.499c-24.248,10.119-31.751,30.851-22.302,61.619l-0.717,0.22
								c-9.581-31.2-1.934-52.238,22.73-62.531c45.982-19.191,150.333,2.205,265.842,54.508
								c55.361,25.067,106.885,54.502,149,85.122c46.01,33.451,79,67.282,95.404,97.834C88.461-18.059,92.168,1.635,88.196,19.465
								c-4.297,19.287-17.638,36.543-39.653,51.288c-80.476,53.905-129.409,188.02-113.822,311.961
								c11.375,90.454,55.094,155.488,119.945,178.427c50.897,18.004,113.286,10.974,185.433-20.897
								C322.552,503.822,416.5,435.226,519.332,336.36C582.07,276.043,638.509,233.866,687.078,211
								c44.534-20.966,84.21-26.492,117.926-16.424c45.657,13.632,82.525,55.888,112.711,129.183
								c26.663,64.741,45.053,145.172,62.837,222.955c31.459,137.587,61.173,267.544,131.619,288.035
								c40.359,11.742,90.94-13.179,154.636-76.174l0.527,0.533C1213.662,812.191,1169.216,838.312,1132.281,838.312z"/>
						</g>
					</g>
					<g>
						<g>
							<path style="fill:#A2ACD0;" d="M1148.415,850.437c-7.273,0-14.271-0.967-21.02-2.897
								c-72.64-20.766-105.089-150.697-139.443-288.259c-19.396-77.662-39.45-157.968-67.697-222.627
								c-31.911-73.051-70.097-115.223-116.737-128.926c-33.99-9.988-73.678-4.893-117.959,15.138
								c-48.366,21.878-104.258,62.462-166.124,120.624c-102.632,96.487-196.749,162.951-279.738,197.543
								c-44.616,18.598-85.661,27.915-122.71,27.917c-23.313,0.001-45.038-3.688-65.094-11.073
								c-36.006-13.26-65.413-38.005-87.403-73.549c-19.864-32.106-32.977-72.624-37.92-117.172
								c-6.279-56.58,0.725-116.968,19.72-170.04c20.253-56.583,52-100.096,91.812-125.833c41.425-26.78,50.953-61.95,28.319-104.53
								c-37.66-70.85-154.211-143.3-250.729-187.479c-56.005-25.634-110.842-44.878-158.583-55.651
								c-50.659-11.431-89.581-12.292-112.56-2.489c-23.091,9.851-29.803,30.03-19.948,59.979l-0.712,0.234
								c-9.998-30.382-3.145-50.873,20.366-60.903c23.125-9.865,62.208-9.018,113.02,2.447
								c47.791,10.784,102.679,30.046,158.73,55.702C-87.367-177.178,29.335-104.614,67.082-33.599
								C77.951-13.152,81.436,5.908,77.44,23.05c-4.315,18.512-17.413,34.952-38.932,48.863
								C-39.318,122.228-86.081,246.36-72.685,367.074c10.598,95.496,56.099,164.784,124.837,190.1
								c51.743,19.055,114.745,13.392,187.256-16.833c82.905-34.558,176.947-100.972,279.513-197.397
								c61.927-58.219,117.888-98.848,166.328-120.76c44.449-20.107,84.311-25.213,118.479-15.174
								c46.867,13.77,85.208,56.078,117.214,129.345c28.271,64.717,48.335,145.055,67.737,222.746
								c34.301,137.345,66.698,267.073,138.923,287.72c40.832,11.673,91.226-12.219,154.051-73.039l0.521,0.539
								C1229.484,825.327,1185.457,850.437,1148.415,850.437z"/>
						</g>
					</g>
					<g>
						<g>
							<path style="fill:#6A93FB;" d="M1164.987,862.709c-7.507,0-14.744-0.985-21.736-2.95
								c-74.45-20.924-109.625-150.684-146.866-288.061c-21.038-77.61-42.793-157.864-72.676-222.532
								c-33.765-73.065-73.456-115.317-121.344-129.167c-34.435-9.96-74.309-5.279-118.513,13.911
								c-48.235,20.94-103.657,60-164.724,116.096c-102.463,94.124-196.763,158.438-280.282,191.155
								c-73.115,28.643-136.958,32.901-189.757,12.659c-37.93-14.541-68.782-41.158-91.7-79.112
								c-20.681-34.248-33.967-76.918-38.424-123.395c-5.239-54.638,1.994-112.017,20.367-161.569
								c19.635-52.958,50.293-93.586,88.658-117.495C68.483,47.015,77.998,13.273,56.273-28.04
								C18.749-99.396-101.314-174.171-201.163-220.356c-56.94-26.337-114.846-47.076-163.052-58.395
								c-51.942-12.197-91.389-13.419-114.074-3.532c-22.004,9.59-27.962,29.25-17.71,58.435l-0.708,0.249
								c-10.406-29.622-4.31-49.597,18.118-59.371c22.835-9.952,62.443-8.745,114.545,3.489
								c48.253,11.331,106.21,32.087,163.195,58.445C-100.888-174.8,19.326-99.911,56.937-28.389
								c10.452,19.876,13.711,38.302,9.686,54.77c-4.338,17.75-17.203,33.396-38.236,46.504
								C-46.819,119.752-91.507,234.215-80.287,351.24c9.486,98.923,57.951,174.392,129.645,201.878
								c52.619,20.173,116.279,15.915,189.215-12.657c83.432-32.684,177.654-96.948,280.047-191.01
								c61.129-56.151,116.62-95.258,164.934-116.231c44.368-19.262,84.41-23.953,119.019-13.943
								c48.108,13.915,87.954,56.298,121.815,129.573c29.909,64.726,51.673,145.01,72.72,222.65
								c37.183,137.167,72.304,266.727,146.344,287.536c41.294,11.602,91.489-11.278,153.461-69.959l0.516,0.545
								C1245.71,838.596,1202.111,862.709,1164.987,862.709z"/>
						</g>
					</g>
				</g>
			</g>
		</g>
	</g>
</g>
<g id="Layer_1">
</g>
</svg>
